%TF.GenerationSoftware,KiCad,Pcbnew,7.0.5*%
%TF.CreationDate,2024-02-27T08:06:29+01:00*%
%TF.ProjectId,Zeitmessung,5a656974-6d65-4737-9375-6e672e6b6963,rev?*%
%TF.SameCoordinates,Original*%
%TF.FileFunction,Copper,L3,Inr*%
%TF.FilePolarity,Positive*%
%FSLAX46Y46*%
G04 Gerber Fmt 4.6, Leading zero omitted, Abs format (unit mm)*
G04 Created by KiCad (PCBNEW 7.0.5) date 2024-02-27 08:06:29*
%MOMM*%
%LPD*%
G01*
G04 APERTURE LIST*
G04 Aperture macros list*
%AMRoundRect*
0 Rectangle with rounded corners*
0 $1 Rounding radius*
0 $2 $3 $4 $5 $6 $7 $8 $9 X,Y pos of 4 corners*
0 Add a 4 corners polygon primitive as box body*
4,1,4,$2,$3,$4,$5,$6,$7,$8,$9,$2,$3,0*
0 Add four circle primitives for the rounded corners*
1,1,$1+$1,$2,$3*
1,1,$1+$1,$4,$5*
1,1,$1+$1,$6,$7*
1,1,$1+$1,$8,$9*
0 Add four rect primitives between the rounded corners*
20,1,$1+$1,$2,$3,$4,$5,0*
20,1,$1+$1,$4,$5,$6,$7,0*
20,1,$1+$1,$6,$7,$8,$9,0*
20,1,$1+$1,$8,$9,$2,$3,0*%
G04 Aperture macros list end*
%TA.AperFunction,ComponentPad*%
%ADD10C,1.524000*%
%TD*%
%TA.AperFunction,ComponentPad*%
%ADD11C,2.400000*%
%TD*%
%TA.AperFunction,ComponentPad*%
%ADD12O,2.400000X2.400000*%
%TD*%
%TA.AperFunction,ComponentPad*%
%ADD13R,1.300000X1.300000*%
%TD*%
%TA.AperFunction,ComponentPad*%
%ADD14C,1.300000*%
%TD*%
%TA.AperFunction,ComponentPad*%
%ADD15RoundRect,0.250000X-0.405000X0.405000X-0.405000X-0.405000X0.405000X-0.405000X0.405000X0.405000X0*%
%TD*%
%TA.AperFunction,ComponentPad*%
%ADD16C,1.310000*%
%TD*%
G04 APERTURE END LIST*
D10*
%TO.N,+5V*%
%TO.C,U2*%
X110890000Y-72760000D03*
%TO.N,Net-(U1-GP2)*%
X110890000Y-70220000D03*
%TO.N,Net-(U1-GP3)*%
X110890000Y-67680000D03*
%TO.N,GND*%
X110890000Y-65140000D03*
%TD*%
D11*
%TO.N,Net-(U1-3V3(OUT))*%
%TO.C,R1*%
X118360000Y-45500000D03*
D12*
%TO.N,Net-(Q1-C)*%
X133600000Y-45500000D03*
%TD*%
D13*
%TO.N,Net-(Q1-C)*%
%TO.C,Q1*%
X147530000Y-62160000D03*
D14*
%TO.N,Net-(Q1-B)*%
X148800000Y-63430000D03*
%TO.N,GND*%
X147530000Y-64700000D03*
%TD*%
D15*
%TO.N,GND*%
%TO.C,J1*%
X162270000Y-55190000D03*
D16*
%TO.N,+24V*%
X159730000Y-55190000D03*
%TO.N,GND*%
X162270000Y-57730000D03*
%TO.N,+24V*%
X159730000Y-57730000D03*
%TO.N,unconnected-(J1-Pin_5-Pad5)*%
X162270000Y-60270000D03*
%TO.N,Net-(J1-Pin_6)*%
X159730000Y-60270000D03*
%TO.N,unconnected-(J1-Pin_7-Pad7)*%
X162270000Y-62810000D03*
%TO.N,unconnected-(J1-Pin_8-Pad8)*%
X159730000Y-62810000D03*
%TD*%
D10*
%TO.N,+24V*%
%TO.C,U3*%
X155060000Y-58360000D03*
%TO.N,GND*%
X155060000Y-60900000D03*
%TO.N,+5V*%
X155060000Y-63440000D03*
%TD*%
%TO.N,Net-(U1-GP2)*%
%TO.C,U1*%
X101380000Y-54000000D03*
%TO.N,Net-(U1-GP3)*%
X103920000Y-54000000D03*
%TO.N,GND*%
X106460000Y-54000000D03*
%TO.N,unconnected-(U1-GP4-Pad4)*%
X109000000Y-54000000D03*
%TO.N,unconnected-(U1-GP5-Pad5)*%
X111540000Y-54000000D03*
%TO.N,unconnected-(U1-GP43-Pad6)*%
X114080000Y-54000000D03*
%TO.N,unconnected-(U1-GP44-Pad7)*%
X116620000Y-54000000D03*
%TO.N,GND*%
X119160000Y-54000000D03*
%TO.N,unconnected-(U1-GP14-Pad9)*%
X121700000Y-54000000D03*
%TO.N,unconnected-(U1-GP15-Pad10)*%
X124240000Y-54000000D03*
%TO.N,unconnected-(U1-GP16-Pad11)*%
X126780000Y-54000000D03*
%TO.N,unconnected-(U1-GP17-Pad12)*%
X129320000Y-54000000D03*
%TO.N,GND*%
X131860000Y-54000000D03*
%TO.N,unconnected-(U1-GP10-Pad14)*%
X134400000Y-54000000D03*
%TO.N,Net-(Q1-C)*%
X136940000Y-54000000D03*
%TO.N,unconnected-(U1-GP12-Pad16)*%
X139480000Y-54000000D03*
%TO.N,unconnected-(U1-GP13-Pad17)*%
X142020000Y-54000000D03*
%TO.N,GND*%
X144560000Y-54000000D03*
%TO.N,unconnected-(U1-GP34-Pad19)*%
X147100000Y-54000000D03*
%TO.N,unconnected-(U1-GP35-Pad20)*%
X149640000Y-54000000D03*
%TO.N,unconnected-(U1-GP36-Pad21)*%
X149640000Y-36220000D03*
%TO.N,unconnected-(U1-GP37-Pad22)*%
X147100000Y-36220000D03*
%TO.N,GND*%
X144560000Y-36220000D03*
%TO.N,unconnected-(U1-GP38-Pad24)*%
X142020000Y-36220000D03*
%TO.N,unconnected-(U1-GP39-Pad25)*%
X139480000Y-36220000D03*
%TO.N,unconnected-(U1-GP40-Pad26)*%
X136940000Y-36220000D03*
%TO.N,unconnected-(U1-GP41-Pad27)*%
X134400000Y-36220000D03*
%TO.N,GND*%
X131860000Y-36220000D03*
%TO.N,unconnected-(U1-GP42-Pad29)*%
X129320000Y-36220000D03*
%TO.N,unconnected-(U1-RUN-Pad30)*%
X126780000Y-36220000D03*
%TO.N,unconnected-(U1-GP6-Pad31)*%
X124240000Y-36220000D03*
%TO.N,unconnected-(U1-GP7-Pad32)*%
X121700000Y-36220000D03*
%TO.N,GND*%
X119160000Y-36220000D03*
%TO.N,unconnected-(U1-GP8-Pad34)*%
X116620000Y-36220000D03*
%TO.N,unconnected-(U1-Pad35)*%
X114080000Y-36220000D03*
%TO.N,Net-(U1-3V3(OUT))*%
X111540000Y-36220000D03*
%TO.N,unconnected-(U1-3V3_EN-Pad37)*%
X109000000Y-36220000D03*
%TO.N,GND*%
X106460000Y-36220000D03*
%TO.N,+5V*%
X103920000Y-36220000D03*
%TO.N,unconnected-(U1-VBUS-Pad40)*%
X101380000Y-36220000D03*
%TD*%
D11*
%TO.N,Net-(J1-Pin_6)*%
%TO.C,R2*%
X162200000Y-68400000D03*
D12*
%TO.N,Net-(Q1-B)*%
X146960000Y-68400000D03*
%TD*%
%TA.AperFunction,Conductor*%
%TO.N,+5V*%
G36*
X157943039Y-34019685D02*
G01*
X157988794Y-34072489D01*
X158000000Y-34123999D01*
X158000000Y-41000000D01*
X164876000Y-41000000D01*
X164943039Y-41019685D01*
X164988794Y-41072489D01*
X165000000Y-41124000D01*
X165000000Y-75876000D01*
X164980315Y-75943039D01*
X164927511Y-75988794D01*
X164876000Y-76000000D01*
X158000000Y-76000000D01*
X158000000Y-82876000D01*
X157980315Y-82943039D01*
X157927511Y-82988794D01*
X157876000Y-83000000D01*
X93124000Y-83000000D01*
X93056961Y-82980315D01*
X93011206Y-82927511D01*
X93000000Y-82876000D01*
X93000000Y-79500001D01*
X110094532Y-79500001D01*
X110114364Y-79726686D01*
X110114366Y-79726697D01*
X110173258Y-79946488D01*
X110173261Y-79946497D01*
X110269431Y-80152732D01*
X110269432Y-80152734D01*
X110399954Y-80339141D01*
X110560858Y-80500045D01*
X110560861Y-80500047D01*
X110747266Y-80630568D01*
X110953504Y-80726739D01*
X111173308Y-80785635D01*
X111343214Y-80800499D01*
X111343215Y-80800500D01*
X111343216Y-80800500D01*
X111456785Y-80800500D01*
X111456785Y-80800499D01*
X111626692Y-80785635D01*
X111846496Y-80726739D01*
X112052734Y-80630568D01*
X112239139Y-80500047D01*
X112400047Y-80339139D01*
X112530568Y-80152734D01*
X112626739Y-79946496D01*
X112685635Y-79726692D01*
X112705468Y-79500001D01*
X141094532Y-79500001D01*
X141114364Y-79726686D01*
X141114366Y-79726697D01*
X141173258Y-79946488D01*
X141173261Y-79946497D01*
X141269431Y-80152732D01*
X141269432Y-80152734D01*
X141399954Y-80339141D01*
X141560858Y-80500045D01*
X141560861Y-80500047D01*
X141747266Y-80630568D01*
X141953504Y-80726739D01*
X142173308Y-80785635D01*
X142343214Y-80800499D01*
X142343215Y-80800500D01*
X142343216Y-80800500D01*
X142456785Y-80800500D01*
X142456785Y-80800499D01*
X142626692Y-80785635D01*
X142846496Y-80726739D01*
X143052734Y-80630568D01*
X143239139Y-80500047D01*
X143400047Y-80339139D01*
X143530568Y-80152734D01*
X143626739Y-79946496D01*
X143685635Y-79726692D01*
X143705468Y-79500000D01*
X143685635Y-79273308D01*
X143626739Y-79053504D01*
X143530568Y-78847266D01*
X143400047Y-78660861D01*
X143400045Y-78660858D01*
X143239141Y-78499954D01*
X143052734Y-78369432D01*
X143052732Y-78369431D01*
X142846497Y-78273261D01*
X142846488Y-78273258D01*
X142626697Y-78214366D01*
X142626687Y-78214364D01*
X142456785Y-78199500D01*
X142456784Y-78199500D01*
X142343216Y-78199500D01*
X142343215Y-78199500D01*
X142173312Y-78214364D01*
X142173302Y-78214366D01*
X141953511Y-78273258D01*
X141953502Y-78273261D01*
X141747267Y-78369431D01*
X141747265Y-78369432D01*
X141560858Y-78499954D01*
X141399954Y-78660858D01*
X141269432Y-78847265D01*
X141269431Y-78847267D01*
X141173261Y-79053502D01*
X141173258Y-79053511D01*
X141114366Y-79273302D01*
X141114364Y-79273313D01*
X141094532Y-79499998D01*
X141094532Y-79500001D01*
X112705468Y-79500001D01*
X112705468Y-79500000D01*
X112685635Y-79273308D01*
X112626739Y-79053504D01*
X112530568Y-78847266D01*
X112400047Y-78660861D01*
X112400045Y-78660858D01*
X112239141Y-78499954D01*
X112052734Y-78369432D01*
X112052732Y-78369431D01*
X111846497Y-78273261D01*
X111846488Y-78273258D01*
X111626697Y-78214366D01*
X111626687Y-78214364D01*
X111456785Y-78199500D01*
X111456784Y-78199500D01*
X111343216Y-78199500D01*
X111343215Y-78199500D01*
X111173312Y-78214364D01*
X111173302Y-78214366D01*
X110953511Y-78273258D01*
X110953502Y-78273261D01*
X110747267Y-78369431D01*
X110747265Y-78369432D01*
X110560858Y-78499954D01*
X110399954Y-78660858D01*
X110269432Y-78847265D01*
X110269431Y-78847267D01*
X110173261Y-79053502D01*
X110173258Y-79053511D01*
X110114366Y-79273302D01*
X110114364Y-79273313D01*
X110094532Y-79499998D01*
X110094532Y-79500001D01*
X93000000Y-79500001D01*
X93000000Y-76000000D01*
X86124000Y-76000000D01*
X86056961Y-75980315D01*
X86011206Y-75927511D01*
X86000000Y-75876000D01*
X86000000Y-74000001D01*
X93694532Y-74000001D01*
X93714364Y-74226686D01*
X93714366Y-74226697D01*
X93773258Y-74446488D01*
X93773261Y-74446497D01*
X93869431Y-74652732D01*
X93869432Y-74652734D01*
X93999954Y-74839141D01*
X94160858Y-75000045D01*
X94160861Y-75000047D01*
X94347266Y-75130568D01*
X94553504Y-75226739D01*
X94773308Y-75285635D01*
X94943214Y-75300499D01*
X94943215Y-75300500D01*
X94943216Y-75300500D01*
X95056785Y-75300500D01*
X95056785Y-75300499D01*
X95226692Y-75285635D01*
X95446496Y-75226739D01*
X95652734Y-75130568D01*
X95839139Y-75000047D01*
X96000047Y-74839139D01*
X96130568Y-74652734D01*
X96226739Y-74446496D01*
X96285635Y-74226692D01*
X96304805Y-74007575D01*
X96305468Y-74000001D01*
X96305468Y-73999998D01*
X96292965Y-73857093D01*
X96285635Y-73773308D01*
X96226739Y-73553504D01*
X96130568Y-73347266D01*
X96000047Y-73160861D01*
X96000045Y-73160858D01*
X95839141Y-72999954D01*
X95652734Y-72869432D01*
X95652732Y-72869431D01*
X95446497Y-72773261D01*
X95446488Y-72773258D01*
X95226697Y-72714366D01*
X95226687Y-72714364D01*
X95056785Y-72699500D01*
X95056784Y-72699500D01*
X94943216Y-72699500D01*
X94943215Y-72699500D01*
X94773312Y-72714364D01*
X94773302Y-72714366D01*
X94553511Y-72773258D01*
X94553502Y-72773261D01*
X94347267Y-72869431D01*
X94347265Y-72869432D01*
X94160858Y-72999954D01*
X93999954Y-73160858D01*
X93869432Y-73347265D01*
X93869431Y-73347267D01*
X93773261Y-73553502D01*
X93773258Y-73553511D01*
X93714366Y-73773302D01*
X93714364Y-73773313D01*
X93694532Y-73999998D01*
X93694532Y-74000001D01*
X86000000Y-74000001D01*
X86000000Y-70220002D01*
X109622677Y-70220002D01*
X109641929Y-70440062D01*
X109641930Y-70440070D01*
X109699104Y-70653445D01*
X109699105Y-70653447D01*
X109699106Y-70653450D01*
X109792465Y-70853662D01*
X109792466Y-70853662D01*
X109792468Y-70853666D01*
X109919170Y-71034615D01*
X109919175Y-71034621D01*
X110075378Y-71190824D01*
X110075384Y-71190829D01*
X110256333Y-71317531D01*
X110256335Y-71317532D01*
X110256338Y-71317534D01*
X110385781Y-71377894D01*
X110438220Y-71424066D01*
X110457372Y-71491260D01*
X110437156Y-71558141D01*
X110385781Y-71602658D01*
X110256586Y-71662903D01*
X110191812Y-71708257D01*
X110191811Y-71708258D01*
X110862554Y-72379000D01*
X110858431Y-72379000D01*
X110764579Y-72394661D01*
X110652749Y-72455180D01*
X110566629Y-72548731D01*
X110515552Y-72665177D01*
X110509894Y-72733447D01*
X109838258Y-72061811D01*
X109838257Y-72061812D01*
X109792903Y-72126586D01*
X109699579Y-72326720D01*
X109699575Y-72326729D01*
X109642426Y-72540013D01*
X109642424Y-72540023D01*
X109623179Y-72759999D01*
X109623179Y-72760000D01*
X109642424Y-72979976D01*
X109642426Y-72979986D01*
X109699575Y-73193270D01*
X109699580Y-73193284D01*
X109792899Y-73393407D01*
X109792900Y-73393409D01*
X109838258Y-73458187D01*
X110505096Y-72791349D01*
X110505051Y-72791898D01*
X110536266Y-72915162D01*
X110605813Y-73021612D01*
X110706157Y-73099713D01*
X110826422Y-73141000D01*
X110862553Y-73141000D01*
X110191811Y-73811741D01*
X110256582Y-73857094D01*
X110256592Y-73857100D01*
X110456715Y-73950419D01*
X110456729Y-73950424D01*
X110670013Y-74007573D01*
X110670023Y-74007575D01*
X110889999Y-74026821D01*
X110890001Y-74026821D01*
X111109976Y-74007575D01*
X111109986Y-74007573D01*
X111138245Y-74000001D01*
X154694532Y-74000001D01*
X154714364Y-74226686D01*
X154714366Y-74226697D01*
X154773258Y-74446488D01*
X154773261Y-74446497D01*
X154869431Y-74652732D01*
X154869432Y-74652734D01*
X154999954Y-74839141D01*
X155160858Y-75000045D01*
X155160861Y-75000047D01*
X155347266Y-75130568D01*
X155553504Y-75226739D01*
X155773308Y-75285635D01*
X155943214Y-75300499D01*
X155943215Y-75300500D01*
X155943216Y-75300500D01*
X156056785Y-75300500D01*
X156056785Y-75300499D01*
X156226692Y-75285635D01*
X156446496Y-75226739D01*
X156652734Y-75130568D01*
X156839139Y-75000047D01*
X157000047Y-74839139D01*
X157130568Y-74652734D01*
X157226739Y-74446496D01*
X157285635Y-74226692D01*
X157304805Y-74007575D01*
X157305468Y-74000001D01*
X157305468Y-73999998D01*
X157292965Y-73857093D01*
X157285635Y-73773308D01*
X157226739Y-73553504D01*
X157130568Y-73347266D01*
X157000047Y-73160861D01*
X157000045Y-73160858D01*
X156839141Y-72999954D01*
X156652734Y-72869432D01*
X156652732Y-72869431D01*
X156446497Y-72773261D01*
X156446488Y-72773258D01*
X156226697Y-72714366D01*
X156226687Y-72714364D01*
X156056785Y-72699500D01*
X156056784Y-72699500D01*
X155943216Y-72699500D01*
X155943215Y-72699500D01*
X155773312Y-72714364D01*
X155773302Y-72714366D01*
X155553511Y-72773258D01*
X155553502Y-72773261D01*
X155347267Y-72869431D01*
X155347265Y-72869432D01*
X155160858Y-72999954D01*
X154999954Y-73160858D01*
X154869432Y-73347265D01*
X154869431Y-73347267D01*
X154773261Y-73553502D01*
X154773258Y-73553511D01*
X154714366Y-73773302D01*
X154714364Y-73773313D01*
X154694532Y-73999998D01*
X154694532Y-74000001D01*
X111138245Y-74000001D01*
X111323270Y-73950424D01*
X111323284Y-73950419D01*
X111523408Y-73857100D01*
X111523420Y-73857093D01*
X111588186Y-73811742D01*
X111588187Y-73811740D01*
X110917448Y-73141000D01*
X110921569Y-73141000D01*
X111015421Y-73125339D01*
X111127251Y-73064820D01*
X111213371Y-72971269D01*
X111264448Y-72854823D01*
X111270105Y-72786552D01*
X111941740Y-73458187D01*
X111941742Y-73458186D01*
X111987093Y-73393420D01*
X111987100Y-73393408D01*
X112080419Y-73193284D01*
X112080424Y-73193270D01*
X112137573Y-72979986D01*
X112137575Y-72979976D01*
X112156821Y-72760000D01*
X112156821Y-72759999D01*
X112137575Y-72540023D01*
X112137573Y-72540013D01*
X112080424Y-72326729D01*
X112080420Y-72326720D01*
X111987098Y-72126590D01*
X111941740Y-72061811D01*
X111274903Y-72728648D01*
X111274949Y-72728102D01*
X111243734Y-72604838D01*
X111174187Y-72498388D01*
X111073843Y-72420287D01*
X110953578Y-72379000D01*
X110917447Y-72379000D01*
X111588187Y-71708258D01*
X111523409Y-71662900D01*
X111523407Y-71662899D01*
X111394219Y-71602658D01*
X111341779Y-71556486D01*
X111322627Y-71489293D01*
X111342843Y-71422411D01*
X111394219Y-71377894D01*
X111523662Y-71317534D01*
X111704620Y-71190826D01*
X111860826Y-71034620D01*
X111987534Y-70853662D01*
X112080894Y-70653450D01*
X112138070Y-70440068D01*
X112157323Y-70220000D01*
X112138070Y-69999932D01*
X112080894Y-69786550D01*
X111987534Y-69586339D01*
X111860826Y-69405380D01*
X111704620Y-69249174D01*
X111704616Y-69249171D01*
X111704615Y-69249170D01*
X111523666Y-69122468D01*
X111523658Y-69122464D01*
X111394811Y-69062382D01*
X111342371Y-69016210D01*
X111323219Y-68949017D01*
X111343435Y-68882135D01*
X111394811Y-68837618D01*
X111400802Y-68834824D01*
X111523662Y-68777534D01*
X111704620Y-68650826D01*
X111860826Y-68494620D01*
X111927077Y-68400004D01*
X145254732Y-68400004D01*
X145273777Y-68654154D01*
X145325812Y-68882135D01*
X145330492Y-68902637D01*
X145423607Y-69139888D01*
X145551041Y-69360612D01*
X145709950Y-69559877D01*
X145896783Y-69733232D01*
X146107366Y-69876805D01*
X146107371Y-69876807D01*
X146107372Y-69876808D01*
X146107373Y-69876809D01*
X146229328Y-69935538D01*
X146336992Y-69987387D01*
X146336993Y-69987387D01*
X146336996Y-69987389D01*
X146580542Y-70062513D01*
X146832565Y-70100500D01*
X147087435Y-70100500D01*
X147339458Y-70062513D01*
X147583004Y-69987389D01*
X147812634Y-69876805D01*
X148023217Y-69733232D01*
X148210050Y-69559877D01*
X148368959Y-69360612D01*
X148496393Y-69139888D01*
X148589508Y-68902637D01*
X148646222Y-68654157D01*
X148665268Y-68400004D01*
X160494732Y-68400004D01*
X160513777Y-68654154D01*
X160565812Y-68882135D01*
X160570492Y-68902637D01*
X160663607Y-69139888D01*
X160791041Y-69360612D01*
X160949950Y-69559877D01*
X161136783Y-69733232D01*
X161347366Y-69876805D01*
X161347371Y-69876807D01*
X161347372Y-69876808D01*
X161347373Y-69876809D01*
X161469328Y-69935538D01*
X161576992Y-69987387D01*
X161576993Y-69987387D01*
X161576996Y-69987389D01*
X161820542Y-70062513D01*
X162072565Y-70100500D01*
X162327435Y-70100500D01*
X162579458Y-70062513D01*
X162823004Y-69987389D01*
X163052634Y-69876805D01*
X163263217Y-69733232D01*
X163450050Y-69559877D01*
X163608959Y-69360612D01*
X163736393Y-69139888D01*
X163829508Y-68902637D01*
X163886222Y-68654157D01*
X163905268Y-68400000D01*
X163898798Y-68313666D01*
X163886222Y-68145845D01*
X163878828Y-68113451D01*
X163829508Y-67897363D01*
X163736393Y-67660112D01*
X163608959Y-67439388D01*
X163450050Y-67240123D01*
X163263217Y-67066768D01*
X163052634Y-66923195D01*
X163052630Y-66923193D01*
X163052627Y-66923191D01*
X163052626Y-66923190D01*
X162823006Y-66812612D01*
X162823008Y-66812612D01*
X162579466Y-66737489D01*
X162579462Y-66737488D01*
X162579458Y-66737487D01*
X162458231Y-66719214D01*
X162327440Y-66699500D01*
X162327435Y-66699500D01*
X162072565Y-66699500D01*
X162072559Y-66699500D01*
X161915609Y-66723157D01*
X161820542Y-66737487D01*
X161820538Y-66737488D01*
X161820539Y-66737488D01*
X161820533Y-66737489D01*
X161576992Y-66812612D01*
X161347373Y-66923190D01*
X161347372Y-66923191D01*
X161136782Y-67066768D01*
X160949952Y-67240121D01*
X160949950Y-67240123D01*
X160791041Y-67439388D01*
X160663608Y-67660109D01*
X160570492Y-67897362D01*
X160570490Y-67897369D01*
X160513777Y-68145845D01*
X160494732Y-68399995D01*
X160494732Y-68400004D01*
X148665268Y-68400004D01*
X148665268Y-68400000D01*
X148658798Y-68313666D01*
X148646222Y-68145845D01*
X148638828Y-68113451D01*
X148589508Y-67897363D01*
X148496393Y-67660112D01*
X148368959Y-67439388D01*
X148210050Y-67240123D01*
X148023217Y-67066768D01*
X147812634Y-66923195D01*
X147812630Y-66923193D01*
X147812627Y-66923191D01*
X147812626Y-66923190D01*
X147583006Y-66812612D01*
X147583008Y-66812612D01*
X147339466Y-66737489D01*
X147339462Y-66737488D01*
X147339458Y-66737487D01*
X147218231Y-66719214D01*
X147087440Y-66699500D01*
X147087435Y-66699500D01*
X146832565Y-66699500D01*
X146832559Y-66699500D01*
X146675609Y-66723157D01*
X146580542Y-66737487D01*
X146580538Y-66737488D01*
X146580539Y-66737488D01*
X146580533Y-66737489D01*
X146336992Y-66812612D01*
X146107373Y-66923190D01*
X146107372Y-66923191D01*
X145896782Y-67066768D01*
X145709952Y-67240121D01*
X145709950Y-67240123D01*
X145551041Y-67439388D01*
X145423608Y-67660109D01*
X145330492Y-67897362D01*
X145330490Y-67897369D01*
X145273777Y-68145845D01*
X145254732Y-68399995D01*
X145254732Y-68400004D01*
X111927077Y-68400004D01*
X111987534Y-68313662D01*
X112080894Y-68113450D01*
X112138070Y-67900068D01*
X112157323Y-67680000D01*
X112138070Y-67459932D01*
X112080894Y-67246550D01*
X111987534Y-67046339D01*
X111901308Y-66923195D01*
X111860827Y-66865381D01*
X111808057Y-66812611D01*
X111704620Y-66709174D01*
X111704616Y-66709171D01*
X111704615Y-66709170D01*
X111523666Y-66582468D01*
X111523658Y-66582464D01*
X111394811Y-66522382D01*
X111342371Y-66476210D01*
X111323219Y-66409017D01*
X111343435Y-66342135D01*
X111394811Y-66297618D01*
X111400802Y-66294824D01*
X111523662Y-66237534D01*
X111704620Y-66110826D01*
X111860826Y-65954620D01*
X111987534Y-65773662D01*
X112080894Y-65573450D01*
X112138070Y-65360068D01*
X112157323Y-65140000D01*
X112138070Y-64919932D01*
X112080894Y-64706550D01*
X112077840Y-64700000D01*
X146374571Y-64700000D01*
X146394244Y-64912310D01*
X146452596Y-65117392D01*
X146452596Y-65117394D01*
X146547632Y-65308253D01*
X146586763Y-65360070D01*
X146676128Y-65478407D01*
X146833698Y-65622052D01*
X147014981Y-65734298D01*
X147213802Y-65811321D01*
X147423390Y-65850500D01*
X147423392Y-65850500D01*
X147636608Y-65850500D01*
X147636610Y-65850500D01*
X147846198Y-65811321D01*
X148045019Y-65734298D01*
X148226302Y-65622052D01*
X148383872Y-65478407D01*
X148512366Y-65308255D01*
X148512367Y-65308253D01*
X148607403Y-65117394D01*
X148607403Y-65117393D01*
X148607405Y-65117389D01*
X148665756Y-64912310D01*
X148685429Y-64700000D01*
X148685429Y-64699999D01*
X148685958Y-64694292D01*
X148688361Y-64694514D01*
X148705114Y-64637461D01*
X148757918Y-64591706D01*
X148809429Y-64580500D01*
X148906608Y-64580500D01*
X148906610Y-64580500D01*
X149116198Y-64541321D01*
X149315019Y-64464298D01*
X149496302Y-64352052D01*
X149653872Y-64208407D01*
X149782366Y-64038255D01*
X149782367Y-64038253D01*
X149877403Y-63847394D01*
X149877403Y-63847393D01*
X149877405Y-63847389D01*
X149935756Y-63642310D01*
X149955429Y-63430000D01*
X149935756Y-63217690D01*
X149877405Y-63012611D01*
X149877403Y-63012606D01*
X149877403Y-63012605D01*
X149782367Y-62821746D01*
X149653872Y-62651593D01*
X149593730Y-62596766D01*
X149496302Y-62507948D01*
X149315019Y-62395702D01*
X149315017Y-62395701D01*
X149178720Y-62342900D01*
X149116198Y-62318679D01*
X148906610Y-62279500D01*
X148804499Y-62279500D01*
X148737460Y-62259815D01*
X148691705Y-62207011D01*
X148680499Y-62155500D01*
X148680499Y-61870824D01*
X148680499Y-61462128D01*
X148674091Y-61402517D01*
X148639134Y-61308793D01*
X148623797Y-61267671D01*
X148623793Y-61267664D01*
X148537547Y-61152455D01*
X148537544Y-61152452D01*
X148422335Y-61066206D01*
X148422328Y-61066202D01*
X148287482Y-61015908D01*
X148287483Y-61015908D01*
X148227883Y-61009501D01*
X148227881Y-61009500D01*
X148227873Y-61009500D01*
X148227864Y-61009500D01*
X146832129Y-61009500D01*
X146832123Y-61009501D01*
X146772516Y-61015908D01*
X146637671Y-61066202D01*
X146637664Y-61066206D01*
X146522455Y-61152452D01*
X146522452Y-61152455D01*
X146436206Y-61267664D01*
X146436202Y-61267671D01*
X146385908Y-61402517D01*
X146379501Y-61462116D01*
X146379501Y-61462123D01*
X146379500Y-61462135D01*
X146379500Y-62857870D01*
X146379501Y-62857876D01*
X146385908Y-62917483D01*
X146436202Y-63052328D01*
X146436206Y-63052335D01*
X146522452Y-63167544D01*
X146522455Y-63167547D01*
X146637664Y-63253793D01*
X146637671Y-63253797D01*
X146772517Y-63304091D01*
X146772516Y-63304091D01*
X146779444Y-63304835D01*
X146832127Y-63310500D01*
X147363759Y-63310499D01*
X147430797Y-63330183D01*
X147476552Y-63382987D01*
X147486496Y-63452146D01*
X147457471Y-63515702D01*
X147398693Y-63553476D01*
X147386544Y-63556387D01*
X147213802Y-63588679D01*
X147213799Y-63588679D01*
X147213799Y-63588680D01*
X147014982Y-63665701D01*
X147014980Y-63665702D01*
X146833699Y-63777947D01*
X146676127Y-63921593D01*
X146547632Y-64091746D01*
X146452596Y-64282605D01*
X146452596Y-64282607D01*
X146394244Y-64487689D01*
X146374571Y-64699999D01*
X146374571Y-64700000D01*
X112077840Y-64700000D01*
X111987534Y-64506339D01*
X111860826Y-64325380D01*
X111704620Y-64169174D01*
X111704616Y-64169171D01*
X111704615Y-64169170D01*
X111523666Y-64042468D01*
X111523662Y-64042466D01*
X111514627Y-64038253D01*
X111323450Y-63949106D01*
X111323447Y-63949105D01*
X111323445Y-63949104D01*
X111110070Y-63891930D01*
X111110062Y-63891929D01*
X110890002Y-63872677D01*
X110889998Y-63872677D01*
X110669937Y-63891929D01*
X110669929Y-63891930D01*
X110456554Y-63949104D01*
X110456548Y-63949107D01*
X110256340Y-64042465D01*
X110256338Y-64042466D01*
X110075377Y-64169175D01*
X109919175Y-64325377D01*
X109792466Y-64506338D01*
X109792465Y-64506340D01*
X109734606Y-64630419D01*
X109704719Y-64694514D01*
X109699107Y-64706548D01*
X109699104Y-64706554D01*
X109641930Y-64919929D01*
X109641929Y-64919937D01*
X109622677Y-65139997D01*
X109622677Y-65140002D01*
X109641929Y-65360062D01*
X109641930Y-65360070D01*
X109699104Y-65573445D01*
X109699105Y-65573447D01*
X109699106Y-65573450D01*
X109774110Y-65734297D01*
X109792466Y-65773662D01*
X109792468Y-65773666D01*
X109919170Y-65954615D01*
X109919175Y-65954621D01*
X110075378Y-66110824D01*
X110075384Y-66110829D01*
X110256333Y-66237531D01*
X110256335Y-66237532D01*
X110256338Y-66237534D01*
X110375748Y-66293215D01*
X110385189Y-66297618D01*
X110437628Y-66343790D01*
X110456780Y-66410984D01*
X110436564Y-66477865D01*
X110385189Y-66522382D01*
X110256340Y-66582465D01*
X110256338Y-66582466D01*
X110075377Y-66709175D01*
X109919175Y-66865377D01*
X109792466Y-67046338D01*
X109792465Y-67046340D01*
X109699107Y-67246548D01*
X109699104Y-67246554D01*
X109641930Y-67459929D01*
X109641929Y-67459937D01*
X109622677Y-67679997D01*
X109622677Y-67680002D01*
X109641929Y-67900062D01*
X109641930Y-67900070D01*
X109699104Y-68113445D01*
X109699105Y-68113447D01*
X109699106Y-68113450D01*
X109714211Y-68145843D01*
X109792466Y-68313662D01*
X109792468Y-68313666D01*
X109919170Y-68494615D01*
X109919175Y-68494621D01*
X110075378Y-68650824D01*
X110075384Y-68650829D01*
X110256333Y-68777531D01*
X110256335Y-68777532D01*
X110256338Y-68777534D01*
X110375748Y-68833215D01*
X110385189Y-68837618D01*
X110437628Y-68883790D01*
X110456780Y-68950984D01*
X110436564Y-69017865D01*
X110385189Y-69062382D01*
X110256340Y-69122465D01*
X110256338Y-69122466D01*
X110075377Y-69249175D01*
X109919175Y-69405377D01*
X109792466Y-69586338D01*
X109792465Y-69586340D01*
X109699107Y-69786548D01*
X109699104Y-69786554D01*
X109641930Y-69999929D01*
X109641929Y-69999937D01*
X109622677Y-70219997D01*
X109622677Y-70220002D01*
X86000000Y-70220002D01*
X86000000Y-60900002D01*
X153792677Y-60900002D01*
X153811929Y-61120062D01*
X153811930Y-61120070D01*
X153869104Y-61333445D01*
X153869105Y-61333447D01*
X153869106Y-61333450D01*
X153920171Y-61442960D01*
X153962466Y-61533662D01*
X153962468Y-61533666D01*
X154089170Y-61714615D01*
X154089175Y-61714621D01*
X154245378Y-61870824D01*
X154245384Y-61870829D01*
X154426333Y-61997531D01*
X154426335Y-61997532D01*
X154426338Y-61997534D01*
X154555781Y-62057894D01*
X154608220Y-62104066D01*
X154627372Y-62171260D01*
X154607156Y-62238141D01*
X154555781Y-62282658D01*
X154426586Y-62342903D01*
X154361812Y-62388257D01*
X154361811Y-62388258D01*
X155032554Y-63059000D01*
X155028431Y-63059000D01*
X154934579Y-63074661D01*
X154822749Y-63135180D01*
X154736629Y-63228731D01*
X154685552Y-63345177D01*
X154679894Y-63413447D01*
X154008258Y-62741811D01*
X154008257Y-62741812D01*
X153962903Y-62806586D01*
X153869579Y-63006720D01*
X153869575Y-63006729D01*
X153812426Y-63220013D01*
X153812424Y-63220023D01*
X153793179Y-63439999D01*
X153793179Y-63440000D01*
X153812424Y-63659976D01*
X153812426Y-63659986D01*
X153869575Y-63873270D01*
X153869580Y-63873284D01*
X153962899Y-64073407D01*
X153962900Y-64073409D01*
X154008258Y-64138187D01*
X154675096Y-63471349D01*
X154675051Y-63471898D01*
X154706266Y-63595162D01*
X154775813Y-63701612D01*
X154876157Y-63779713D01*
X154996422Y-63821000D01*
X155032553Y-63821000D01*
X154361811Y-64491741D01*
X154426582Y-64537094D01*
X154426592Y-64537100D01*
X154626715Y-64630419D01*
X154626729Y-64630424D01*
X154840013Y-64687573D01*
X154840023Y-64687575D01*
X155059999Y-64706821D01*
X155060001Y-64706821D01*
X155279976Y-64687575D01*
X155279986Y-64687573D01*
X155493270Y-64630424D01*
X155493284Y-64630419D01*
X155693408Y-64537100D01*
X155693420Y-64537093D01*
X155758186Y-64491742D01*
X155758187Y-64491740D01*
X155087448Y-63821000D01*
X155091569Y-63821000D01*
X155185421Y-63805339D01*
X155297251Y-63744820D01*
X155383371Y-63651269D01*
X155434448Y-63534823D01*
X155440105Y-63466552D01*
X156111740Y-64138187D01*
X156111742Y-64138186D01*
X156157093Y-64073420D01*
X156157100Y-64073408D01*
X156250419Y-63873284D01*
X156250424Y-63873270D01*
X156307573Y-63659986D01*
X156307575Y-63659976D01*
X156326821Y-63440000D01*
X156326821Y-63439999D01*
X156307575Y-63220023D01*
X156307573Y-63220013D01*
X156250424Y-63006729D01*
X156250420Y-63006720D01*
X156158688Y-62810000D01*
X158569550Y-62810000D01*
X158589308Y-63023231D01*
X158589309Y-63023233D01*
X158647911Y-63229198D01*
X158647917Y-63229213D01*
X158736994Y-63408102D01*
X158743366Y-63420898D01*
X158870068Y-63588680D01*
X158872419Y-63591792D01*
X158872422Y-63591795D01*
X159030672Y-63736058D01*
X159030674Y-63736060D01*
X159212739Y-63848790D01*
X159212745Y-63848793D01*
X159235228Y-63857502D01*
X159412428Y-63926151D01*
X159622927Y-63965500D01*
X159622929Y-63965500D01*
X159837071Y-63965500D01*
X159837073Y-63965500D01*
X160047572Y-63926151D01*
X160247257Y-63848792D01*
X160429327Y-63736059D01*
X160587583Y-63591790D01*
X160716634Y-63420898D01*
X160812087Y-63229203D01*
X160870691Y-63023232D01*
X160876529Y-62960229D01*
X160902315Y-62895293D01*
X160959116Y-62854605D01*
X161028897Y-62851085D01*
X161089503Y-62885850D01*
X161121693Y-62947863D01*
X161123471Y-62960230D01*
X161129308Y-63023231D01*
X161129309Y-63023233D01*
X161187911Y-63229198D01*
X161187917Y-63229213D01*
X161276994Y-63408102D01*
X161283366Y-63420898D01*
X161410068Y-63588680D01*
X161412419Y-63591792D01*
X161412422Y-63591795D01*
X161570672Y-63736058D01*
X161570674Y-63736060D01*
X161752739Y-63848790D01*
X161752745Y-63848793D01*
X161775228Y-63857502D01*
X161952428Y-63926151D01*
X162162927Y-63965500D01*
X162162929Y-63965500D01*
X162377071Y-63965500D01*
X162377073Y-63965500D01*
X162587572Y-63926151D01*
X162787257Y-63848792D01*
X162969327Y-63736059D01*
X163127583Y-63591790D01*
X163256634Y-63420898D01*
X163352087Y-63229203D01*
X163410691Y-63023232D01*
X163430450Y-62810000D01*
X163410691Y-62596768D01*
X163352087Y-62390797D01*
X163350822Y-62388257D01*
X163297867Y-62281909D01*
X163256634Y-62199102D01*
X163127583Y-62028210D01*
X163127580Y-62028207D01*
X163127577Y-62028204D01*
X162969327Y-61883941D01*
X162969325Y-61883939D01*
X162787260Y-61771209D01*
X162787254Y-61771206D01*
X162703607Y-61738801D01*
X162587572Y-61693849D01*
X162416596Y-61661888D01*
X162354317Y-61630221D01*
X162319044Y-61569908D01*
X162321978Y-61500100D01*
X162362187Y-61442960D01*
X162416596Y-61418111D01*
X162587572Y-61386151D01*
X162787257Y-61308792D01*
X162969327Y-61196059D01*
X163127583Y-61051790D01*
X163256634Y-60880898D01*
X163352087Y-60689203D01*
X163410691Y-60483232D01*
X163430450Y-60270000D01*
X163410691Y-60056768D01*
X163352087Y-59850797D01*
X163328020Y-59802465D01*
X163281533Y-59709106D01*
X163256634Y-59659102D01*
X163127583Y-59488210D01*
X163127580Y-59488207D01*
X163127577Y-59488204D01*
X162969327Y-59343941D01*
X162969325Y-59343939D01*
X162787260Y-59231209D01*
X162787254Y-59231206D01*
X162703607Y-59198801D01*
X162587572Y-59153849D01*
X162416596Y-59121888D01*
X162354317Y-59090221D01*
X162319044Y-59029908D01*
X162321978Y-58960100D01*
X162362187Y-58902960D01*
X162416596Y-58878111D01*
X162587572Y-58846151D01*
X162787257Y-58768792D01*
X162969327Y-58656059D01*
X163127583Y-58511790D01*
X163256634Y-58340898D01*
X163352087Y-58149203D01*
X163410691Y-57943232D01*
X163430450Y-57730000D01*
X163410691Y-57516768D01*
X163352087Y-57310797D01*
X163333396Y-57273261D01*
X163304069Y-57214364D01*
X163256634Y-57119102D01*
X163127583Y-56948210D01*
X163127580Y-56948207D01*
X163127577Y-56948204D01*
X162969327Y-56803941D01*
X162969325Y-56803939D01*
X162787260Y-56691209D01*
X162787254Y-56691206D01*
X162703607Y-56658801D01*
X162587572Y-56613849D01*
X162467412Y-56591387D01*
X162405133Y-56559720D01*
X162369860Y-56499407D01*
X162372794Y-56429599D01*
X162413003Y-56372459D01*
X162477721Y-56346128D01*
X162490193Y-56345499D01*
X162725008Y-56345499D01*
X162725016Y-56345498D01*
X162725019Y-56345498D01*
X162797332Y-56338111D01*
X162827797Y-56334999D01*
X162994334Y-56279814D01*
X163143656Y-56187712D01*
X163267712Y-56063656D01*
X163359814Y-55914334D01*
X163414999Y-55747797D01*
X163425500Y-55645009D01*
X163425499Y-54734992D01*
X163414999Y-54632203D01*
X163359814Y-54465666D01*
X163267712Y-54316344D01*
X163143656Y-54192288D01*
X162994334Y-54100186D01*
X162827797Y-54045001D01*
X162827795Y-54045000D01*
X162725010Y-54034500D01*
X161814998Y-54034500D01*
X161814980Y-54034501D01*
X161712203Y-54045000D01*
X161712200Y-54045001D01*
X161545668Y-54100185D01*
X161545663Y-54100187D01*
X161396342Y-54192289D01*
X161272289Y-54316342D01*
X161180187Y-54465663D01*
X161180185Y-54465668D01*
X161152349Y-54549670D01*
X161125001Y-54632203D01*
X161125001Y-54632204D01*
X161125000Y-54632204D01*
X161114500Y-54734983D01*
X161114500Y-54944742D01*
X161094815Y-55011781D01*
X161042011Y-55057536D01*
X160972853Y-55067480D01*
X160909297Y-55038455D01*
X160871523Y-54979677D01*
X160871234Y-54978676D01*
X160812088Y-54770801D01*
X160812087Y-54770797D01*
X160794252Y-54734980D01*
X160765560Y-54677360D01*
X160716634Y-54579102D01*
X160587583Y-54408210D01*
X160587580Y-54408207D01*
X160587577Y-54408204D01*
X160429327Y-54263941D01*
X160429325Y-54263939D01*
X160247260Y-54151209D01*
X160247254Y-54151206D01*
X160163607Y-54118801D01*
X160047572Y-54073849D01*
X159837073Y-54034500D01*
X159622927Y-54034500D01*
X159412428Y-54073849D01*
X159364457Y-54092433D01*
X159212745Y-54151206D01*
X159212739Y-54151209D01*
X159030674Y-54263939D01*
X159030672Y-54263941D01*
X158872422Y-54408204D01*
X158872419Y-54408207D01*
X158743366Y-54579101D01*
X158647917Y-54770786D01*
X158647911Y-54770801D01*
X158589309Y-54976766D01*
X158589308Y-54976768D01*
X158569550Y-55189999D01*
X158569550Y-55190000D01*
X158589308Y-55403231D01*
X158589309Y-55403233D01*
X158647911Y-55609198D01*
X158647917Y-55609213D01*
X158716924Y-55747795D01*
X158743366Y-55800898D01*
X158829028Y-55914334D01*
X158872419Y-55971792D01*
X158872422Y-55971795D01*
X159030672Y-56116058D01*
X159030674Y-56116060D01*
X159212739Y-56228790D01*
X159212745Y-56228793D01*
X159235228Y-56237502D01*
X159412428Y-56306151D01*
X159583402Y-56338111D01*
X159645682Y-56369779D01*
X159680955Y-56430092D01*
X159678021Y-56499900D01*
X159637812Y-56557040D01*
X159583402Y-56581888D01*
X159412428Y-56613849D01*
X159364457Y-56632433D01*
X159212745Y-56691206D01*
X159212739Y-56691209D01*
X159030674Y-56803939D01*
X159030672Y-56803941D01*
X158872422Y-56948204D01*
X158872419Y-56948207D01*
X158743366Y-57119101D01*
X158647917Y-57310786D01*
X158647911Y-57310801D01*
X158589309Y-57516766D01*
X158589308Y-57516768D01*
X158569550Y-57729999D01*
X158569550Y-57730000D01*
X158589308Y-57943231D01*
X158589309Y-57943233D01*
X158647911Y-58149198D01*
X158647917Y-58149213D01*
X158743366Y-58340898D01*
X158863514Y-58500001D01*
X158872419Y-58511792D01*
X158872422Y-58511795D01*
X159030672Y-58656058D01*
X159030674Y-58656060D01*
X159212739Y-58768790D01*
X159212745Y-58768793D01*
X159235228Y-58777502D01*
X159412428Y-58846151D01*
X159583402Y-58878111D01*
X159645682Y-58909779D01*
X159680955Y-58970092D01*
X159678021Y-59039900D01*
X159637812Y-59097040D01*
X159583402Y-59121888D01*
X159412428Y-59153849D01*
X159364457Y-59172433D01*
X159212745Y-59231206D01*
X159212739Y-59231209D01*
X159030674Y-59343939D01*
X159030672Y-59343941D01*
X158872422Y-59488204D01*
X158872419Y-59488207D01*
X158743366Y-59659101D01*
X158647917Y-59850786D01*
X158647911Y-59850801D01*
X158589309Y-60056766D01*
X158589308Y-60056768D01*
X158569550Y-60269999D01*
X158569550Y-60270000D01*
X158589308Y-60483231D01*
X158589309Y-60483233D01*
X158647911Y-60689198D01*
X158647917Y-60689213D01*
X158743366Y-60880898D01*
X158845320Y-61015908D01*
X158872419Y-61051792D01*
X158872422Y-61051795D01*
X159030672Y-61196058D01*
X159030674Y-61196060D01*
X159212739Y-61308790D01*
X159212745Y-61308793D01*
X159235228Y-61317502D01*
X159412428Y-61386151D01*
X159583402Y-61418111D01*
X159645682Y-61449779D01*
X159680955Y-61510092D01*
X159678021Y-61579900D01*
X159637812Y-61637040D01*
X159583402Y-61661888D01*
X159412428Y-61693849D01*
X159364457Y-61712433D01*
X159212745Y-61771206D01*
X159212739Y-61771209D01*
X159030674Y-61883939D01*
X159030672Y-61883941D01*
X158872422Y-62028204D01*
X158872419Y-62028207D01*
X158743366Y-62199101D01*
X158647917Y-62390786D01*
X158647911Y-62390801D01*
X158589309Y-62596766D01*
X158589308Y-62596768D01*
X158569550Y-62809999D01*
X158569550Y-62810000D01*
X156158688Y-62810000D01*
X156157098Y-62806590D01*
X156111740Y-62741811D01*
X155444903Y-63408648D01*
X155444949Y-63408102D01*
X155413734Y-63284838D01*
X155344187Y-63178388D01*
X155243843Y-63100287D01*
X155123578Y-63059000D01*
X155087447Y-63059000D01*
X155758187Y-62388258D01*
X155693409Y-62342900D01*
X155693407Y-62342899D01*
X155564219Y-62282658D01*
X155511779Y-62236486D01*
X155492627Y-62169293D01*
X155512843Y-62102411D01*
X155564219Y-62057894D01*
X155693662Y-61997534D01*
X155874620Y-61870826D01*
X156030826Y-61714620D01*
X156157534Y-61533662D01*
X156250894Y-61333450D01*
X156308070Y-61120068D01*
X156327323Y-60900000D01*
X156308070Y-60679932D01*
X156250894Y-60466550D01*
X156157534Y-60266339D01*
X156030826Y-60085380D01*
X155874620Y-59929174D01*
X155874616Y-59929171D01*
X155874615Y-59929170D01*
X155693666Y-59802468D01*
X155693658Y-59802464D01*
X155564811Y-59742382D01*
X155512371Y-59696210D01*
X155493219Y-59629017D01*
X155513435Y-59562135D01*
X155564811Y-59517618D01*
X155602496Y-59500045D01*
X155693662Y-59457534D01*
X155874620Y-59330826D01*
X156030826Y-59174620D01*
X156157534Y-58993662D01*
X156250894Y-58793450D01*
X156308070Y-58580068D01*
X156327323Y-58360000D01*
X156308070Y-58139932D01*
X156250894Y-57926550D01*
X156157534Y-57726339D01*
X156030826Y-57545380D01*
X155874620Y-57389174D01*
X155874616Y-57389171D01*
X155874615Y-57389170D01*
X155693666Y-57262468D01*
X155693662Y-57262466D01*
X155693662Y-57262465D01*
X155493450Y-57169106D01*
X155493447Y-57169105D01*
X155493445Y-57169104D01*
X155280070Y-57111930D01*
X155280062Y-57111929D01*
X155060002Y-57092677D01*
X155059998Y-57092677D01*
X154839937Y-57111929D01*
X154839929Y-57111930D01*
X154626554Y-57169104D01*
X154626548Y-57169107D01*
X154426340Y-57262465D01*
X154426338Y-57262466D01*
X154245377Y-57389175D01*
X154089175Y-57545377D01*
X153962466Y-57726338D01*
X153962465Y-57726340D01*
X153869107Y-57926548D01*
X153869104Y-57926554D01*
X153811930Y-58139929D01*
X153811929Y-58139937D01*
X153792677Y-58359997D01*
X153792677Y-58360002D01*
X153811929Y-58580062D01*
X153811930Y-58580070D01*
X153869104Y-58793445D01*
X153869105Y-58793447D01*
X153869106Y-58793450D01*
X153940472Y-58946496D01*
X153962466Y-58993662D01*
X153962468Y-58993666D01*
X154089170Y-59174615D01*
X154089175Y-59174621D01*
X154245378Y-59330824D01*
X154245384Y-59330829D01*
X154426333Y-59457531D01*
X154426335Y-59457532D01*
X154426338Y-59457534D01*
X154517504Y-59500045D01*
X154555189Y-59517618D01*
X154607628Y-59563790D01*
X154626780Y-59630984D01*
X154606564Y-59697865D01*
X154555189Y-59742382D01*
X154426340Y-59802465D01*
X154426338Y-59802466D01*
X154245377Y-59929175D01*
X154089175Y-60085377D01*
X153962466Y-60266338D01*
X153962465Y-60266340D01*
X153869107Y-60466548D01*
X153869104Y-60466554D01*
X153811930Y-60679929D01*
X153811929Y-60679937D01*
X153792677Y-60899997D01*
X153792677Y-60900002D01*
X86000000Y-60900002D01*
X86000000Y-58500001D01*
X110094532Y-58500001D01*
X110114364Y-58726686D01*
X110114366Y-58726697D01*
X110173258Y-58946488D01*
X110173261Y-58946497D01*
X110269431Y-59152732D01*
X110269432Y-59152734D01*
X110399954Y-59339141D01*
X110560858Y-59500045D01*
X110560861Y-59500047D01*
X110747266Y-59630568D01*
X110953504Y-59726739D01*
X111173308Y-59785635D01*
X111343214Y-59800499D01*
X111343215Y-59800500D01*
X111343216Y-59800500D01*
X111456785Y-59800500D01*
X111456785Y-59800499D01*
X111626692Y-59785635D01*
X111846496Y-59726739D01*
X112052734Y-59630568D01*
X112239139Y-59500047D01*
X112400047Y-59339139D01*
X112530568Y-59152734D01*
X112626739Y-58946496D01*
X112685635Y-58726692D01*
X112705468Y-58500001D01*
X141094532Y-58500001D01*
X141114364Y-58726686D01*
X141114366Y-58726697D01*
X141173258Y-58946488D01*
X141173261Y-58946497D01*
X141269431Y-59152732D01*
X141269432Y-59152734D01*
X141399954Y-59339141D01*
X141560858Y-59500045D01*
X141560861Y-59500047D01*
X141747266Y-59630568D01*
X141953504Y-59726739D01*
X142173308Y-59785635D01*
X142343214Y-59800499D01*
X142343215Y-59800500D01*
X142343216Y-59800500D01*
X142456785Y-59800500D01*
X142456785Y-59800499D01*
X142626692Y-59785635D01*
X142846496Y-59726739D01*
X143052734Y-59630568D01*
X143239139Y-59500047D01*
X143400047Y-59339139D01*
X143530568Y-59152734D01*
X143626739Y-58946496D01*
X143685635Y-58726692D01*
X143705468Y-58500000D01*
X143685635Y-58273308D01*
X143626739Y-58053504D01*
X143530568Y-57847266D01*
X143400047Y-57660861D01*
X143400045Y-57660858D01*
X143239141Y-57499954D01*
X143052734Y-57369432D01*
X143052732Y-57369431D01*
X142846497Y-57273261D01*
X142846488Y-57273258D01*
X142626697Y-57214366D01*
X142626687Y-57214364D01*
X142456785Y-57199500D01*
X142456784Y-57199500D01*
X142343216Y-57199500D01*
X142343215Y-57199500D01*
X142173312Y-57214364D01*
X142173302Y-57214366D01*
X141953511Y-57273258D01*
X141953502Y-57273261D01*
X141747267Y-57369431D01*
X141747265Y-57369432D01*
X141560858Y-57499954D01*
X141399954Y-57660858D01*
X141269432Y-57847265D01*
X141269431Y-57847267D01*
X141173261Y-58053502D01*
X141173258Y-58053511D01*
X141114366Y-58273302D01*
X141114364Y-58273313D01*
X141094532Y-58499998D01*
X141094532Y-58500001D01*
X112705468Y-58500001D01*
X112705468Y-58500000D01*
X112685635Y-58273308D01*
X112626739Y-58053504D01*
X112530568Y-57847266D01*
X112400047Y-57660861D01*
X112400045Y-57660858D01*
X112239141Y-57499954D01*
X112052734Y-57369432D01*
X112052732Y-57369431D01*
X111846497Y-57273261D01*
X111846488Y-57273258D01*
X111626697Y-57214366D01*
X111626687Y-57214364D01*
X111456785Y-57199500D01*
X111456784Y-57199500D01*
X111343216Y-57199500D01*
X111343215Y-57199500D01*
X111173312Y-57214364D01*
X111173302Y-57214366D01*
X110953511Y-57273258D01*
X110953502Y-57273261D01*
X110747267Y-57369431D01*
X110747265Y-57369432D01*
X110560858Y-57499954D01*
X110399954Y-57660858D01*
X110269432Y-57847265D01*
X110269431Y-57847267D01*
X110173261Y-58053502D01*
X110173258Y-58053511D01*
X110114366Y-58273302D01*
X110114364Y-58273313D01*
X110094532Y-58499998D01*
X110094532Y-58500001D01*
X86000000Y-58500001D01*
X86000000Y-54000002D01*
X100112677Y-54000002D01*
X100131929Y-54220062D01*
X100131930Y-54220070D01*
X100189104Y-54433445D01*
X100189105Y-54433447D01*
X100189106Y-54433450D01*
X100281784Y-54632200D01*
X100282466Y-54633662D01*
X100282468Y-54633666D01*
X100409170Y-54814615D01*
X100409175Y-54814621D01*
X100565378Y-54970824D01*
X100565384Y-54970829D01*
X100746333Y-55097531D01*
X100746335Y-55097532D01*
X100746338Y-55097534D01*
X100946550Y-55190894D01*
X101159932Y-55248070D01*
X101317123Y-55261822D01*
X101379998Y-55267323D01*
X101380000Y-55267323D01*
X101380002Y-55267323D01*
X101435016Y-55262509D01*
X101600068Y-55248070D01*
X101813450Y-55190894D01*
X102013662Y-55097534D01*
X102194620Y-54970826D01*
X102350826Y-54814620D01*
X102477534Y-54633662D01*
X102537617Y-54504811D01*
X102583790Y-54452371D01*
X102650983Y-54433219D01*
X102717865Y-54453435D01*
X102762382Y-54504811D01*
X102822464Y-54633658D01*
X102822468Y-54633666D01*
X102949170Y-54814615D01*
X102949175Y-54814621D01*
X103105378Y-54970824D01*
X103105384Y-54970829D01*
X103286333Y-55097531D01*
X103286335Y-55097532D01*
X103286338Y-55097534D01*
X103486550Y-55190894D01*
X103699932Y-55248070D01*
X103857123Y-55261822D01*
X103919998Y-55267323D01*
X103920000Y-55267323D01*
X103920002Y-55267323D01*
X103975017Y-55262509D01*
X104140068Y-55248070D01*
X104353450Y-55190894D01*
X104553662Y-55097534D01*
X104734620Y-54970826D01*
X104890826Y-54814620D01*
X105017534Y-54633662D01*
X105077617Y-54504811D01*
X105123790Y-54452371D01*
X105190983Y-54433219D01*
X105257865Y-54453435D01*
X105302382Y-54504811D01*
X105362464Y-54633658D01*
X105362468Y-54633666D01*
X105489170Y-54814615D01*
X105489175Y-54814621D01*
X105645378Y-54970824D01*
X105645384Y-54970829D01*
X105826333Y-55097531D01*
X105826335Y-55097532D01*
X105826338Y-55097534D01*
X106026550Y-55190894D01*
X106239932Y-55248070D01*
X106397123Y-55261822D01*
X106459998Y-55267323D01*
X106460000Y-55267323D01*
X106460002Y-55267323D01*
X106515017Y-55262509D01*
X106680068Y-55248070D01*
X106893450Y-55190894D01*
X107093662Y-55097534D01*
X107274620Y-54970826D01*
X107430826Y-54814620D01*
X107557534Y-54633662D01*
X107617617Y-54504811D01*
X107663790Y-54452371D01*
X107730983Y-54433219D01*
X107797865Y-54453435D01*
X107842382Y-54504811D01*
X107902464Y-54633658D01*
X107902468Y-54633666D01*
X108029170Y-54814615D01*
X108029175Y-54814621D01*
X108185378Y-54970824D01*
X108185384Y-54970829D01*
X108366333Y-55097531D01*
X108366335Y-55097532D01*
X108366338Y-55097534D01*
X108566550Y-55190894D01*
X108779932Y-55248070D01*
X108937123Y-55261822D01*
X108999998Y-55267323D01*
X109000000Y-55267323D01*
X109000002Y-55267323D01*
X109055017Y-55262509D01*
X109220068Y-55248070D01*
X109433450Y-55190894D01*
X109633662Y-55097534D01*
X109814620Y-54970826D01*
X109970826Y-54814620D01*
X110097534Y-54633662D01*
X110157617Y-54504811D01*
X110203790Y-54452371D01*
X110270983Y-54433219D01*
X110337865Y-54453435D01*
X110382382Y-54504811D01*
X110442464Y-54633658D01*
X110442468Y-54633666D01*
X110569170Y-54814615D01*
X110569175Y-54814621D01*
X110725378Y-54970824D01*
X110725384Y-54970829D01*
X110906333Y-55097531D01*
X110906335Y-55097532D01*
X110906338Y-55097534D01*
X111106550Y-55190894D01*
X111319932Y-55248070D01*
X111477123Y-55261822D01*
X111539998Y-55267323D01*
X111540000Y-55267323D01*
X111540002Y-55267323D01*
X111595016Y-55262509D01*
X111760068Y-55248070D01*
X111973450Y-55190894D01*
X112173662Y-55097534D01*
X112354620Y-54970826D01*
X112510826Y-54814620D01*
X112637534Y-54633662D01*
X112697620Y-54504806D01*
X112743788Y-54452372D01*
X112810982Y-54433219D01*
X112877863Y-54453434D01*
X112922381Y-54504810D01*
X112982466Y-54633662D01*
X112982468Y-54633666D01*
X113109170Y-54814615D01*
X113109175Y-54814621D01*
X113265378Y-54970824D01*
X113265384Y-54970829D01*
X113446333Y-55097531D01*
X113446335Y-55097532D01*
X113446338Y-55097534D01*
X113646550Y-55190894D01*
X113859932Y-55248070D01*
X114017123Y-55261822D01*
X114079998Y-55267323D01*
X114080000Y-55267323D01*
X114080002Y-55267323D01*
X114135017Y-55262509D01*
X114300068Y-55248070D01*
X114513450Y-55190894D01*
X114713662Y-55097534D01*
X114894620Y-54970826D01*
X115050826Y-54814620D01*
X115177534Y-54633662D01*
X115237617Y-54504811D01*
X115283790Y-54452371D01*
X115350983Y-54433219D01*
X115417865Y-54453435D01*
X115462382Y-54504811D01*
X115522464Y-54633658D01*
X115522468Y-54633666D01*
X115649170Y-54814615D01*
X115649175Y-54814621D01*
X115805378Y-54970824D01*
X115805384Y-54970829D01*
X115986333Y-55097531D01*
X115986335Y-55097532D01*
X115986338Y-55097534D01*
X116186550Y-55190894D01*
X116399932Y-55248070D01*
X116557123Y-55261822D01*
X116619998Y-55267323D01*
X116620000Y-55267323D01*
X116620002Y-55267323D01*
X116675017Y-55262509D01*
X116840068Y-55248070D01*
X117053450Y-55190894D01*
X117253662Y-55097534D01*
X117434620Y-54970826D01*
X117590826Y-54814620D01*
X117717534Y-54633662D01*
X117777620Y-54504806D01*
X117823788Y-54452372D01*
X117890982Y-54433219D01*
X117957863Y-54453434D01*
X118002381Y-54504810D01*
X118062466Y-54633662D01*
X118062468Y-54633666D01*
X118189170Y-54814615D01*
X118189175Y-54814621D01*
X118345378Y-54970824D01*
X118345384Y-54970829D01*
X118526333Y-55097531D01*
X118526335Y-55097532D01*
X118526338Y-55097534D01*
X118726550Y-55190894D01*
X118939932Y-55248070D01*
X119097123Y-55261822D01*
X119159998Y-55267323D01*
X119160000Y-55267323D01*
X119160002Y-55267323D01*
X119215017Y-55262509D01*
X119380068Y-55248070D01*
X119593450Y-55190894D01*
X119793662Y-55097534D01*
X119974620Y-54970826D01*
X120130826Y-54814620D01*
X120257534Y-54633662D01*
X120317617Y-54504811D01*
X120363790Y-54452371D01*
X120430983Y-54433219D01*
X120497865Y-54453435D01*
X120542382Y-54504811D01*
X120602464Y-54633658D01*
X120602468Y-54633666D01*
X120729170Y-54814615D01*
X120729175Y-54814621D01*
X120885378Y-54970824D01*
X120885384Y-54970829D01*
X121066333Y-55097531D01*
X121066335Y-55097532D01*
X121066338Y-55097534D01*
X121266550Y-55190894D01*
X121479932Y-55248070D01*
X121637123Y-55261822D01*
X121699998Y-55267323D01*
X121700000Y-55267323D01*
X121700002Y-55267323D01*
X121755016Y-55262509D01*
X121920068Y-55248070D01*
X122133450Y-55190894D01*
X122333662Y-55097534D01*
X122514620Y-54970826D01*
X122670826Y-54814620D01*
X122797534Y-54633662D01*
X122857620Y-54504806D01*
X122903788Y-54452372D01*
X122970982Y-54433219D01*
X123037863Y-54453434D01*
X123082381Y-54504810D01*
X123142466Y-54633662D01*
X123142468Y-54633666D01*
X123269170Y-54814615D01*
X123269175Y-54814621D01*
X123425378Y-54970824D01*
X123425384Y-54970829D01*
X123606333Y-55097531D01*
X123606335Y-55097532D01*
X123606338Y-55097534D01*
X123806550Y-55190894D01*
X124019932Y-55248070D01*
X124177123Y-55261822D01*
X124239998Y-55267323D01*
X124240000Y-55267323D01*
X124240002Y-55267323D01*
X124295017Y-55262509D01*
X124460068Y-55248070D01*
X124673450Y-55190894D01*
X124873662Y-55097534D01*
X125054620Y-54970826D01*
X125210826Y-54814620D01*
X125337534Y-54633662D01*
X125397617Y-54504811D01*
X125443790Y-54452371D01*
X125510983Y-54433219D01*
X125577865Y-54453435D01*
X125622382Y-54504811D01*
X125682464Y-54633658D01*
X125682468Y-54633666D01*
X125809170Y-54814615D01*
X125809175Y-54814621D01*
X125965378Y-54970824D01*
X125965384Y-54970829D01*
X126146333Y-55097531D01*
X126146335Y-55097532D01*
X126146338Y-55097534D01*
X126346550Y-55190894D01*
X126559932Y-55248070D01*
X126717123Y-55261822D01*
X126779998Y-55267323D01*
X126780000Y-55267323D01*
X126780002Y-55267323D01*
X126835017Y-55262509D01*
X127000068Y-55248070D01*
X127213450Y-55190894D01*
X127413662Y-55097534D01*
X127594620Y-54970826D01*
X127750826Y-54814620D01*
X127877534Y-54633662D01*
X127937620Y-54504806D01*
X127983788Y-54452372D01*
X128050982Y-54433219D01*
X128117863Y-54453434D01*
X128162381Y-54504810D01*
X128222466Y-54633662D01*
X128222468Y-54633666D01*
X128349170Y-54814615D01*
X128349175Y-54814621D01*
X128505378Y-54970824D01*
X128505384Y-54970829D01*
X128686333Y-55097531D01*
X128686335Y-55097532D01*
X128686338Y-55097534D01*
X128886550Y-55190894D01*
X129099932Y-55248070D01*
X129257123Y-55261822D01*
X129319998Y-55267323D01*
X129320000Y-55267323D01*
X129320002Y-55267323D01*
X129375017Y-55262509D01*
X129540068Y-55248070D01*
X129753450Y-55190894D01*
X129953662Y-55097534D01*
X130134620Y-54970826D01*
X130290826Y-54814620D01*
X130417534Y-54633662D01*
X130477617Y-54504811D01*
X130523790Y-54452371D01*
X130590983Y-54433219D01*
X130657865Y-54453435D01*
X130702382Y-54504811D01*
X130762464Y-54633658D01*
X130762468Y-54633666D01*
X130889170Y-54814615D01*
X130889175Y-54814621D01*
X131045378Y-54970824D01*
X131045384Y-54970829D01*
X131226333Y-55097531D01*
X131226335Y-55097532D01*
X131226338Y-55097534D01*
X131426550Y-55190894D01*
X131639932Y-55248070D01*
X131797123Y-55261822D01*
X131859998Y-55267323D01*
X131860000Y-55267323D01*
X131860002Y-55267323D01*
X131915016Y-55262509D01*
X132080068Y-55248070D01*
X132293450Y-55190894D01*
X132493662Y-55097534D01*
X132674620Y-54970826D01*
X132830826Y-54814620D01*
X132957534Y-54633662D01*
X133017620Y-54504806D01*
X133063788Y-54452372D01*
X133130982Y-54433219D01*
X133197863Y-54453434D01*
X133242381Y-54504810D01*
X133302466Y-54633662D01*
X133302468Y-54633666D01*
X133429170Y-54814615D01*
X133429175Y-54814621D01*
X133585378Y-54970824D01*
X133585384Y-54970829D01*
X133766333Y-55097531D01*
X133766335Y-55097532D01*
X133766338Y-55097534D01*
X133966550Y-55190894D01*
X134179932Y-55248070D01*
X134337123Y-55261822D01*
X134399998Y-55267323D01*
X134400000Y-55267323D01*
X134400002Y-55267323D01*
X134455017Y-55262509D01*
X134620068Y-55248070D01*
X134833450Y-55190894D01*
X135033662Y-55097534D01*
X135214620Y-54970826D01*
X135370826Y-54814620D01*
X135497534Y-54633662D01*
X135557617Y-54504811D01*
X135603790Y-54452371D01*
X135670983Y-54433219D01*
X135737865Y-54453435D01*
X135782382Y-54504811D01*
X135842464Y-54633658D01*
X135842468Y-54633666D01*
X135969170Y-54814615D01*
X135969175Y-54814621D01*
X136125378Y-54970824D01*
X136125384Y-54970829D01*
X136306333Y-55097531D01*
X136306335Y-55097532D01*
X136306338Y-55097534D01*
X136506550Y-55190894D01*
X136719932Y-55248070D01*
X136877123Y-55261822D01*
X136939998Y-55267323D01*
X136940000Y-55267323D01*
X136940002Y-55267323D01*
X136995017Y-55262509D01*
X137160068Y-55248070D01*
X137373450Y-55190894D01*
X137573662Y-55097534D01*
X137754620Y-54970826D01*
X137910826Y-54814620D01*
X138037534Y-54633662D01*
X138097617Y-54504811D01*
X138143790Y-54452371D01*
X138210983Y-54433219D01*
X138277865Y-54453435D01*
X138322382Y-54504811D01*
X138382464Y-54633658D01*
X138382468Y-54633666D01*
X138509170Y-54814615D01*
X138509175Y-54814621D01*
X138665378Y-54970824D01*
X138665384Y-54970829D01*
X138846333Y-55097531D01*
X138846335Y-55097532D01*
X138846338Y-55097534D01*
X139046550Y-55190894D01*
X139259932Y-55248070D01*
X139417123Y-55261822D01*
X139479998Y-55267323D01*
X139480000Y-55267323D01*
X139480002Y-55267323D01*
X139535017Y-55262509D01*
X139700068Y-55248070D01*
X139913450Y-55190894D01*
X140113662Y-55097534D01*
X140294620Y-54970826D01*
X140450826Y-54814620D01*
X140577534Y-54633662D01*
X140637617Y-54504811D01*
X140683790Y-54452371D01*
X140750983Y-54433219D01*
X140817865Y-54453435D01*
X140862382Y-54504811D01*
X140922464Y-54633658D01*
X140922468Y-54633666D01*
X141049170Y-54814615D01*
X141049175Y-54814621D01*
X141205378Y-54970824D01*
X141205384Y-54970829D01*
X141386333Y-55097531D01*
X141386335Y-55097532D01*
X141386338Y-55097534D01*
X141586550Y-55190894D01*
X141799932Y-55248070D01*
X141957123Y-55261822D01*
X142019998Y-55267323D01*
X142020000Y-55267323D01*
X142020002Y-55267323D01*
X142075016Y-55262509D01*
X142240068Y-55248070D01*
X142453450Y-55190894D01*
X142653662Y-55097534D01*
X142834620Y-54970826D01*
X142990826Y-54814620D01*
X143117534Y-54633662D01*
X143177617Y-54504811D01*
X143223790Y-54452371D01*
X143290983Y-54433219D01*
X143357865Y-54453435D01*
X143402382Y-54504811D01*
X143462464Y-54633658D01*
X143462468Y-54633666D01*
X143589170Y-54814615D01*
X143589175Y-54814621D01*
X143745378Y-54970824D01*
X143745384Y-54970829D01*
X143926333Y-55097531D01*
X143926335Y-55097532D01*
X143926338Y-55097534D01*
X144126550Y-55190894D01*
X144339932Y-55248070D01*
X144497123Y-55261822D01*
X144559998Y-55267323D01*
X144560000Y-55267323D01*
X144560002Y-55267323D01*
X144615017Y-55262509D01*
X144780068Y-55248070D01*
X144993450Y-55190894D01*
X145193662Y-55097534D01*
X145374620Y-54970826D01*
X145530826Y-54814620D01*
X145657534Y-54633662D01*
X145717617Y-54504811D01*
X145763790Y-54452371D01*
X145830983Y-54433219D01*
X145897865Y-54453435D01*
X145942382Y-54504811D01*
X146002464Y-54633658D01*
X146002468Y-54633666D01*
X146129170Y-54814615D01*
X146129175Y-54814621D01*
X146285378Y-54970824D01*
X146285384Y-54970829D01*
X146466333Y-55097531D01*
X146466335Y-55097532D01*
X146466338Y-55097534D01*
X146666550Y-55190894D01*
X146879932Y-55248070D01*
X147037123Y-55261822D01*
X147099998Y-55267323D01*
X147100000Y-55267323D01*
X147100002Y-55267323D01*
X147155017Y-55262509D01*
X147320068Y-55248070D01*
X147533450Y-55190894D01*
X147733662Y-55097534D01*
X147914620Y-54970826D01*
X148070826Y-54814620D01*
X148197534Y-54633662D01*
X148257617Y-54504811D01*
X148303790Y-54452371D01*
X148370983Y-54433219D01*
X148437865Y-54453435D01*
X148482382Y-54504811D01*
X148542464Y-54633658D01*
X148542468Y-54633666D01*
X148669170Y-54814615D01*
X148669175Y-54814621D01*
X148825378Y-54970824D01*
X148825384Y-54970829D01*
X149006333Y-55097531D01*
X149006335Y-55097532D01*
X149006338Y-55097534D01*
X149206550Y-55190894D01*
X149419932Y-55248070D01*
X149577123Y-55261822D01*
X149639998Y-55267323D01*
X149640000Y-55267323D01*
X149640002Y-55267323D01*
X149695017Y-55262509D01*
X149860068Y-55248070D01*
X150073450Y-55190894D01*
X150273662Y-55097534D01*
X150454620Y-54970826D01*
X150610826Y-54814620D01*
X150737534Y-54633662D01*
X150830894Y-54433450D01*
X150888070Y-54220068D01*
X150907323Y-54000000D01*
X150888070Y-53779932D01*
X150830894Y-53566550D01*
X150737534Y-53366339D01*
X150610826Y-53185380D01*
X150454620Y-53029174D01*
X150454616Y-53029171D01*
X150454615Y-53029170D01*
X150273666Y-52902468D01*
X150273662Y-52902466D01*
X150273662Y-52902465D01*
X150073450Y-52809106D01*
X150073447Y-52809105D01*
X150073445Y-52809104D01*
X149860070Y-52751930D01*
X149860062Y-52751929D01*
X149640002Y-52732677D01*
X149639998Y-52732677D01*
X149419937Y-52751929D01*
X149419929Y-52751930D01*
X149206554Y-52809104D01*
X149206548Y-52809107D01*
X149006340Y-52902465D01*
X149006338Y-52902466D01*
X148825377Y-53029175D01*
X148669175Y-53185377D01*
X148542466Y-53366338D01*
X148542465Y-53366340D01*
X148482382Y-53495189D01*
X148436209Y-53547628D01*
X148369016Y-53566780D01*
X148302135Y-53546564D01*
X148257618Y-53495189D01*
X148197534Y-53366340D01*
X148197533Y-53366338D01*
X148070827Y-53185381D01*
X148070823Y-53185377D01*
X147914620Y-53029174D01*
X147914616Y-53029171D01*
X147914615Y-53029170D01*
X147733666Y-52902468D01*
X147733662Y-52902466D01*
X147733662Y-52902465D01*
X147533450Y-52809106D01*
X147533447Y-52809105D01*
X147533445Y-52809104D01*
X147320070Y-52751930D01*
X147320062Y-52751929D01*
X147100002Y-52732677D01*
X147099998Y-52732677D01*
X146879937Y-52751929D01*
X146879929Y-52751930D01*
X146666554Y-52809104D01*
X146666548Y-52809107D01*
X146466340Y-52902465D01*
X146466338Y-52902466D01*
X146285377Y-53029175D01*
X146129175Y-53185377D01*
X146002466Y-53366338D01*
X146002465Y-53366340D01*
X145942382Y-53495189D01*
X145896209Y-53547628D01*
X145829016Y-53566780D01*
X145762135Y-53546564D01*
X145717618Y-53495189D01*
X145657534Y-53366340D01*
X145657533Y-53366338D01*
X145530827Y-53185381D01*
X145530823Y-53185377D01*
X145374620Y-53029174D01*
X145374616Y-53029171D01*
X145374615Y-53029170D01*
X145193666Y-52902468D01*
X145193662Y-52902466D01*
X145193662Y-52902465D01*
X144993450Y-52809106D01*
X144993447Y-52809105D01*
X144993445Y-52809104D01*
X144780070Y-52751930D01*
X144780062Y-52751929D01*
X144560002Y-52732677D01*
X144559998Y-52732677D01*
X144339937Y-52751929D01*
X144339929Y-52751930D01*
X144126554Y-52809104D01*
X144126548Y-52809107D01*
X143926340Y-52902465D01*
X143926338Y-52902466D01*
X143745377Y-53029175D01*
X143589175Y-53185377D01*
X143462466Y-53366338D01*
X143462465Y-53366340D01*
X143402382Y-53495189D01*
X143356209Y-53547628D01*
X143289016Y-53566780D01*
X143222135Y-53546564D01*
X143177618Y-53495189D01*
X143117534Y-53366340D01*
X143117533Y-53366338D01*
X142990827Y-53185381D01*
X142990823Y-53185377D01*
X142834620Y-53029174D01*
X142834616Y-53029171D01*
X142834615Y-53029170D01*
X142653666Y-52902468D01*
X142653662Y-52902466D01*
X142653662Y-52902465D01*
X142453450Y-52809106D01*
X142453447Y-52809105D01*
X142453445Y-52809104D01*
X142240070Y-52751930D01*
X142240062Y-52751929D01*
X142020002Y-52732677D01*
X142019998Y-52732677D01*
X141799937Y-52751929D01*
X141799929Y-52751930D01*
X141586554Y-52809104D01*
X141586548Y-52809107D01*
X141386340Y-52902465D01*
X141386338Y-52902466D01*
X141205377Y-53029175D01*
X141049175Y-53185377D01*
X140922466Y-53366338D01*
X140922465Y-53366340D01*
X140862382Y-53495189D01*
X140816209Y-53547628D01*
X140749016Y-53566780D01*
X140682135Y-53546564D01*
X140637618Y-53495189D01*
X140577534Y-53366340D01*
X140577533Y-53366338D01*
X140450827Y-53185381D01*
X140450823Y-53185377D01*
X140294620Y-53029174D01*
X140294616Y-53029171D01*
X140294615Y-53029170D01*
X140113666Y-52902468D01*
X140113662Y-52902466D01*
X140113662Y-52902465D01*
X139913450Y-52809106D01*
X139913447Y-52809105D01*
X139913445Y-52809104D01*
X139700070Y-52751930D01*
X139700062Y-52751929D01*
X139480002Y-52732677D01*
X139479998Y-52732677D01*
X139259937Y-52751929D01*
X139259929Y-52751930D01*
X139046554Y-52809104D01*
X139046548Y-52809107D01*
X138846340Y-52902465D01*
X138846338Y-52902466D01*
X138665377Y-53029175D01*
X138509175Y-53185377D01*
X138382466Y-53366338D01*
X138382465Y-53366340D01*
X138322382Y-53495189D01*
X138276209Y-53547628D01*
X138209016Y-53566780D01*
X138142135Y-53546564D01*
X138097618Y-53495189D01*
X138037534Y-53366340D01*
X138037533Y-53366338D01*
X137910827Y-53185381D01*
X137910823Y-53185377D01*
X137754620Y-53029174D01*
X137754616Y-53029171D01*
X137754615Y-53029170D01*
X137573666Y-52902468D01*
X137573662Y-52902466D01*
X137573662Y-52902465D01*
X137373450Y-52809106D01*
X137373447Y-52809105D01*
X137373445Y-52809104D01*
X137160070Y-52751930D01*
X137160062Y-52751929D01*
X136940002Y-52732677D01*
X136939998Y-52732677D01*
X136719937Y-52751929D01*
X136719929Y-52751930D01*
X136506554Y-52809104D01*
X136506548Y-52809107D01*
X136306340Y-52902465D01*
X136306338Y-52902466D01*
X136125377Y-53029175D01*
X135969175Y-53185377D01*
X135842466Y-53366338D01*
X135842465Y-53366340D01*
X135782382Y-53495189D01*
X135736209Y-53547628D01*
X135669016Y-53566780D01*
X135602135Y-53546564D01*
X135557618Y-53495189D01*
X135497534Y-53366340D01*
X135497533Y-53366338D01*
X135370827Y-53185381D01*
X135370823Y-53185377D01*
X135214620Y-53029174D01*
X135214616Y-53029171D01*
X135214615Y-53029170D01*
X135033666Y-52902468D01*
X135033662Y-52902466D01*
X135033662Y-52902465D01*
X134833450Y-52809106D01*
X134833447Y-52809105D01*
X134833445Y-52809104D01*
X134620070Y-52751930D01*
X134620062Y-52751929D01*
X134400002Y-52732677D01*
X134399998Y-52732677D01*
X134179937Y-52751929D01*
X134179929Y-52751930D01*
X133966554Y-52809104D01*
X133966548Y-52809107D01*
X133766340Y-52902465D01*
X133766338Y-52902466D01*
X133585377Y-53029175D01*
X133429175Y-53185377D01*
X133302466Y-53366338D01*
X133302465Y-53366340D01*
X133242382Y-53495189D01*
X133196209Y-53547628D01*
X133129016Y-53566780D01*
X133062135Y-53546564D01*
X133017618Y-53495189D01*
X132957534Y-53366340D01*
X132957533Y-53366338D01*
X132830827Y-53185381D01*
X132830823Y-53185377D01*
X132674620Y-53029174D01*
X132674616Y-53029171D01*
X132674615Y-53029170D01*
X132493666Y-52902468D01*
X132493662Y-52902466D01*
X132493662Y-52902465D01*
X132293450Y-52809106D01*
X132293447Y-52809105D01*
X132293445Y-52809104D01*
X132080070Y-52751930D01*
X132080062Y-52751929D01*
X131860002Y-52732677D01*
X131859998Y-52732677D01*
X131639937Y-52751929D01*
X131639929Y-52751930D01*
X131426554Y-52809104D01*
X131426548Y-52809107D01*
X131226340Y-52902465D01*
X131226338Y-52902466D01*
X131045377Y-53029175D01*
X130889175Y-53185377D01*
X130762466Y-53366338D01*
X130762465Y-53366340D01*
X130702382Y-53495189D01*
X130656209Y-53547628D01*
X130589016Y-53566780D01*
X130522135Y-53546564D01*
X130477618Y-53495189D01*
X130417534Y-53366340D01*
X130417533Y-53366338D01*
X130290827Y-53185381D01*
X130290823Y-53185377D01*
X130134620Y-53029174D01*
X130134616Y-53029171D01*
X130134615Y-53029170D01*
X129953666Y-52902468D01*
X129953662Y-52902466D01*
X129953662Y-52902465D01*
X129753450Y-52809106D01*
X129753447Y-52809105D01*
X129753445Y-52809104D01*
X129540070Y-52751930D01*
X129540062Y-52751929D01*
X129320002Y-52732677D01*
X129319998Y-52732677D01*
X129099937Y-52751929D01*
X129099929Y-52751930D01*
X128886554Y-52809104D01*
X128886548Y-52809107D01*
X128686340Y-52902465D01*
X128686338Y-52902466D01*
X128505377Y-53029175D01*
X128349175Y-53185377D01*
X128222466Y-53366338D01*
X128222465Y-53366340D01*
X128162382Y-53495189D01*
X128116209Y-53547628D01*
X128049016Y-53566780D01*
X127982135Y-53546564D01*
X127937618Y-53495189D01*
X127877534Y-53366340D01*
X127877533Y-53366338D01*
X127750827Y-53185381D01*
X127750823Y-53185377D01*
X127594620Y-53029174D01*
X127594616Y-53029171D01*
X127594615Y-53029170D01*
X127413666Y-52902468D01*
X127413662Y-52902466D01*
X127413661Y-52902465D01*
X127213450Y-52809106D01*
X127213447Y-52809105D01*
X127213445Y-52809104D01*
X127000070Y-52751930D01*
X127000062Y-52751929D01*
X126780002Y-52732677D01*
X126779998Y-52732677D01*
X126559937Y-52751929D01*
X126559929Y-52751930D01*
X126346554Y-52809104D01*
X126346548Y-52809107D01*
X126146340Y-52902465D01*
X126146338Y-52902466D01*
X125965377Y-53029175D01*
X125809175Y-53185377D01*
X125682466Y-53366338D01*
X125682465Y-53366340D01*
X125622382Y-53495189D01*
X125576209Y-53547628D01*
X125509016Y-53566780D01*
X125442135Y-53546564D01*
X125397618Y-53495189D01*
X125337534Y-53366340D01*
X125337533Y-53366338D01*
X125210827Y-53185381D01*
X125210823Y-53185377D01*
X125054620Y-53029174D01*
X125054616Y-53029171D01*
X125054615Y-53029170D01*
X124873666Y-52902468D01*
X124873662Y-52902466D01*
X124873661Y-52902465D01*
X124673450Y-52809106D01*
X124673447Y-52809105D01*
X124673445Y-52809104D01*
X124460070Y-52751930D01*
X124460062Y-52751929D01*
X124240002Y-52732677D01*
X124239998Y-52732677D01*
X124019937Y-52751929D01*
X124019929Y-52751930D01*
X123806554Y-52809104D01*
X123806548Y-52809107D01*
X123606340Y-52902465D01*
X123606338Y-52902466D01*
X123425377Y-53029175D01*
X123269175Y-53185377D01*
X123142466Y-53366338D01*
X123142465Y-53366340D01*
X123082382Y-53495189D01*
X123036209Y-53547628D01*
X122969016Y-53566780D01*
X122902135Y-53546564D01*
X122857618Y-53495189D01*
X122797534Y-53366340D01*
X122797533Y-53366338D01*
X122670827Y-53185381D01*
X122670823Y-53185377D01*
X122514620Y-53029174D01*
X122514616Y-53029171D01*
X122514615Y-53029170D01*
X122333666Y-52902468D01*
X122333662Y-52902466D01*
X122333661Y-52902465D01*
X122133450Y-52809106D01*
X122133447Y-52809105D01*
X122133445Y-52809104D01*
X121920070Y-52751930D01*
X121920062Y-52751929D01*
X121700002Y-52732677D01*
X121699998Y-52732677D01*
X121479937Y-52751929D01*
X121479929Y-52751930D01*
X121266554Y-52809104D01*
X121266548Y-52809107D01*
X121066340Y-52902465D01*
X121066338Y-52902466D01*
X120885377Y-53029175D01*
X120729175Y-53185377D01*
X120602466Y-53366338D01*
X120602465Y-53366340D01*
X120542382Y-53495189D01*
X120496209Y-53547628D01*
X120429016Y-53566780D01*
X120362135Y-53546564D01*
X120317618Y-53495189D01*
X120257534Y-53366340D01*
X120257533Y-53366338D01*
X120130827Y-53185381D01*
X120130823Y-53185377D01*
X119974620Y-53029174D01*
X119974616Y-53029171D01*
X119974615Y-53029170D01*
X119793666Y-52902468D01*
X119793662Y-52902466D01*
X119793660Y-52902465D01*
X119593450Y-52809106D01*
X119593447Y-52809105D01*
X119593445Y-52809104D01*
X119380070Y-52751930D01*
X119380062Y-52751929D01*
X119160002Y-52732677D01*
X119159998Y-52732677D01*
X118939937Y-52751929D01*
X118939929Y-52751930D01*
X118726554Y-52809104D01*
X118726548Y-52809107D01*
X118526340Y-52902465D01*
X118526338Y-52902466D01*
X118345377Y-53029175D01*
X118189175Y-53185377D01*
X118062466Y-53366338D01*
X118062465Y-53366340D01*
X118002382Y-53495189D01*
X117956209Y-53547628D01*
X117889016Y-53566780D01*
X117822135Y-53546564D01*
X117777618Y-53495189D01*
X117717534Y-53366340D01*
X117717533Y-53366338D01*
X117590827Y-53185381D01*
X117590823Y-53185377D01*
X117434620Y-53029174D01*
X117434616Y-53029171D01*
X117434615Y-53029170D01*
X117253666Y-52902468D01*
X117253662Y-52902466D01*
X117253660Y-52902465D01*
X117053450Y-52809106D01*
X117053447Y-52809105D01*
X117053445Y-52809104D01*
X116840070Y-52751930D01*
X116840062Y-52751929D01*
X116620002Y-52732677D01*
X116619998Y-52732677D01*
X116399937Y-52751929D01*
X116399929Y-52751930D01*
X116186554Y-52809104D01*
X116186548Y-52809107D01*
X115986340Y-52902465D01*
X115986338Y-52902466D01*
X115805377Y-53029175D01*
X115649175Y-53185377D01*
X115522466Y-53366338D01*
X115522465Y-53366340D01*
X115462382Y-53495189D01*
X115416209Y-53547628D01*
X115349016Y-53566780D01*
X115282135Y-53546564D01*
X115237618Y-53495189D01*
X115177534Y-53366340D01*
X115177533Y-53366338D01*
X115050827Y-53185381D01*
X115050823Y-53185377D01*
X114894620Y-53029174D01*
X114894616Y-53029171D01*
X114894615Y-53029170D01*
X114713666Y-52902468D01*
X114713662Y-52902466D01*
X114713660Y-52902465D01*
X114513450Y-52809106D01*
X114513447Y-52809105D01*
X114513445Y-52809104D01*
X114300070Y-52751930D01*
X114300062Y-52751929D01*
X114080002Y-52732677D01*
X114079998Y-52732677D01*
X113859937Y-52751929D01*
X113859929Y-52751930D01*
X113646554Y-52809104D01*
X113646548Y-52809107D01*
X113446340Y-52902465D01*
X113446338Y-52902466D01*
X113265377Y-53029175D01*
X113109175Y-53185377D01*
X112982466Y-53366338D01*
X112982465Y-53366340D01*
X112922382Y-53495189D01*
X112876209Y-53547628D01*
X112809016Y-53566780D01*
X112742135Y-53546564D01*
X112697618Y-53495189D01*
X112637534Y-53366340D01*
X112637533Y-53366338D01*
X112510827Y-53185381D01*
X112510823Y-53185377D01*
X112354620Y-53029174D01*
X112354616Y-53029171D01*
X112354615Y-53029170D01*
X112173666Y-52902468D01*
X112173662Y-52902466D01*
X112173660Y-52902465D01*
X111973450Y-52809106D01*
X111973447Y-52809105D01*
X111973445Y-52809104D01*
X111760070Y-52751930D01*
X111760062Y-52751929D01*
X111540002Y-52732677D01*
X111539998Y-52732677D01*
X111319937Y-52751929D01*
X111319929Y-52751930D01*
X111106554Y-52809104D01*
X111106548Y-52809107D01*
X110906340Y-52902465D01*
X110906338Y-52902466D01*
X110725377Y-53029175D01*
X110569175Y-53185377D01*
X110442466Y-53366338D01*
X110442465Y-53366340D01*
X110382382Y-53495189D01*
X110336209Y-53547628D01*
X110269016Y-53566780D01*
X110202135Y-53546564D01*
X110157618Y-53495189D01*
X110097534Y-53366340D01*
X110097533Y-53366338D01*
X109970827Y-53185381D01*
X109970823Y-53185377D01*
X109814620Y-53029174D01*
X109814616Y-53029171D01*
X109814615Y-53029170D01*
X109633666Y-52902468D01*
X109633662Y-52902466D01*
X109633660Y-52902465D01*
X109433450Y-52809106D01*
X109433447Y-52809105D01*
X109433445Y-52809104D01*
X109220070Y-52751930D01*
X109220062Y-52751929D01*
X109000002Y-52732677D01*
X108999998Y-52732677D01*
X108779937Y-52751929D01*
X108779929Y-52751930D01*
X108566554Y-52809104D01*
X108566548Y-52809107D01*
X108366340Y-52902465D01*
X108366338Y-52902466D01*
X108185377Y-53029175D01*
X108029175Y-53185377D01*
X107902466Y-53366338D01*
X107902465Y-53366340D01*
X107842382Y-53495189D01*
X107796209Y-53547628D01*
X107729016Y-53566780D01*
X107662135Y-53546564D01*
X107617618Y-53495189D01*
X107557534Y-53366340D01*
X107557533Y-53366338D01*
X107430827Y-53185381D01*
X107430823Y-53185377D01*
X107274620Y-53029174D01*
X107274616Y-53029171D01*
X107274615Y-53029170D01*
X107093666Y-52902468D01*
X107093662Y-52902466D01*
X107093660Y-52902465D01*
X106893450Y-52809106D01*
X106893447Y-52809105D01*
X106893445Y-52809104D01*
X106680070Y-52751930D01*
X106680062Y-52751929D01*
X106460002Y-52732677D01*
X106459998Y-52732677D01*
X106239937Y-52751929D01*
X106239929Y-52751930D01*
X106026554Y-52809104D01*
X106026548Y-52809107D01*
X105826340Y-52902465D01*
X105826338Y-52902466D01*
X105645377Y-53029175D01*
X105489175Y-53185377D01*
X105362466Y-53366338D01*
X105362465Y-53366340D01*
X105302382Y-53495189D01*
X105256209Y-53547628D01*
X105189016Y-53566780D01*
X105122135Y-53546564D01*
X105077618Y-53495189D01*
X105017534Y-53366340D01*
X105017533Y-53366338D01*
X104890827Y-53185381D01*
X104890823Y-53185377D01*
X104734620Y-53029174D01*
X104734616Y-53029171D01*
X104734615Y-53029170D01*
X104553666Y-52902468D01*
X104553662Y-52902466D01*
X104553661Y-52902465D01*
X104353450Y-52809106D01*
X104353447Y-52809105D01*
X104353445Y-52809104D01*
X104140070Y-52751930D01*
X104140062Y-52751929D01*
X103920002Y-52732677D01*
X103919998Y-52732677D01*
X103699937Y-52751929D01*
X103699929Y-52751930D01*
X103486554Y-52809104D01*
X103486548Y-52809107D01*
X103286340Y-52902465D01*
X103286338Y-52902466D01*
X103105377Y-53029175D01*
X102949175Y-53185377D01*
X102822466Y-53366338D01*
X102822465Y-53366340D01*
X102762382Y-53495189D01*
X102716209Y-53547628D01*
X102649016Y-53566780D01*
X102582135Y-53546564D01*
X102537618Y-53495189D01*
X102477534Y-53366340D01*
X102477533Y-53366338D01*
X102350827Y-53185381D01*
X102350823Y-53185377D01*
X102194620Y-53029174D01*
X102194616Y-53029171D01*
X102194615Y-53029170D01*
X102013666Y-52902468D01*
X102013662Y-52902466D01*
X102013661Y-52902465D01*
X101813450Y-52809106D01*
X101813447Y-52809105D01*
X101813445Y-52809104D01*
X101600070Y-52751930D01*
X101600062Y-52751929D01*
X101380002Y-52732677D01*
X101379998Y-52732677D01*
X101159937Y-52751929D01*
X101159929Y-52751930D01*
X100946554Y-52809104D01*
X100946548Y-52809107D01*
X100746340Y-52902465D01*
X100746338Y-52902466D01*
X100565377Y-53029175D01*
X100409175Y-53185377D01*
X100282466Y-53366338D01*
X100282465Y-53366340D01*
X100189107Y-53566548D01*
X100189104Y-53566554D01*
X100131930Y-53779929D01*
X100131929Y-53779937D01*
X100112677Y-53999997D01*
X100112677Y-54000002D01*
X86000000Y-54000002D01*
X86000000Y-45500004D01*
X116654732Y-45500004D01*
X116673777Y-45754154D01*
X116673778Y-45754157D01*
X116730492Y-46002637D01*
X116823607Y-46239888D01*
X116951041Y-46460612D01*
X117109950Y-46659877D01*
X117296783Y-46833232D01*
X117507366Y-46976805D01*
X117507371Y-46976807D01*
X117507372Y-46976808D01*
X117507373Y-46976809D01*
X117629328Y-47035538D01*
X117736992Y-47087387D01*
X117736993Y-47087387D01*
X117736996Y-47087389D01*
X117980542Y-47162513D01*
X118232565Y-47200500D01*
X118487435Y-47200500D01*
X118739458Y-47162513D01*
X118983004Y-47087389D01*
X119212634Y-46976805D01*
X119423217Y-46833232D01*
X119610050Y-46659877D01*
X119768959Y-46460612D01*
X119896393Y-46239888D01*
X119989508Y-46002637D01*
X120046222Y-45754157D01*
X120065268Y-45500004D01*
X131894732Y-45500004D01*
X131913777Y-45754154D01*
X131913778Y-45754157D01*
X131970492Y-46002637D01*
X132063607Y-46239888D01*
X132191041Y-46460612D01*
X132349950Y-46659877D01*
X132536783Y-46833232D01*
X132747366Y-46976805D01*
X132747371Y-46976807D01*
X132747372Y-46976808D01*
X132747373Y-46976809D01*
X132869328Y-47035538D01*
X132976992Y-47087387D01*
X132976993Y-47087387D01*
X132976996Y-47087389D01*
X133220542Y-47162513D01*
X133472565Y-47200500D01*
X133727435Y-47200500D01*
X133979458Y-47162513D01*
X134223004Y-47087389D01*
X134452634Y-46976805D01*
X134663217Y-46833232D01*
X134850050Y-46659877D01*
X135008959Y-46460612D01*
X135136393Y-46239888D01*
X135229508Y-46002637D01*
X135286222Y-45754157D01*
X135305268Y-45500000D01*
X135286222Y-45245843D01*
X135229508Y-44997363D01*
X135136393Y-44760112D01*
X135008959Y-44539388D01*
X134850050Y-44340123D01*
X134663217Y-44166768D01*
X134452634Y-44023195D01*
X134452630Y-44023193D01*
X134452627Y-44023191D01*
X134452626Y-44023190D01*
X134223006Y-43912612D01*
X134223008Y-43912612D01*
X133979466Y-43837489D01*
X133979462Y-43837488D01*
X133979458Y-43837487D01*
X133858231Y-43819214D01*
X133727440Y-43799500D01*
X133727435Y-43799500D01*
X133472565Y-43799500D01*
X133472559Y-43799500D01*
X133315609Y-43823157D01*
X133220542Y-43837487D01*
X133220538Y-43837488D01*
X133220539Y-43837488D01*
X133220533Y-43837489D01*
X132976992Y-43912612D01*
X132747373Y-44023190D01*
X132747372Y-44023191D01*
X132536782Y-44166768D01*
X132349952Y-44340121D01*
X132349950Y-44340123D01*
X132191041Y-44539388D01*
X132063608Y-44760109D01*
X131970492Y-44997362D01*
X131970490Y-44997369D01*
X131913777Y-45245845D01*
X131894732Y-45499995D01*
X131894732Y-45500004D01*
X120065268Y-45500004D01*
X120065268Y-45500000D01*
X120046222Y-45245843D01*
X119989508Y-44997363D01*
X119896393Y-44760112D01*
X119768959Y-44539388D01*
X119610050Y-44340123D01*
X119423217Y-44166768D01*
X119212634Y-44023195D01*
X119212630Y-44023193D01*
X119212627Y-44023191D01*
X119212626Y-44023190D01*
X118983006Y-43912612D01*
X118983008Y-43912612D01*
X118739466Y-43837489D01*
X118739462Y-43837488D01*
X118739458Y-43837487D01*
X118618231Y-43819214D01*
X118487440Y-43799500D01*
X118487435Y-43799500D01*
X118232565Y-43799500D01*
X118232559Y-43799500D01*
X118075609Y-43823157D01*
X117980542Y-43837487D01*
X117980538Y-43837488D01*
X117980539Y-43837488D01*
X117980533Y-43837489D01*
X117736992Y-43912612D01*
X117507373Y-44023190D01*
X117507372Y-44023191D01*
X117296782Y-44166768D01*
X117109952Y-44340121D01*
X117109950Y-44340123D01*
X116951041Y-44539388D01*
X116823608Y-44760109D01*
X116730492Y-44997362D01*
X116730490Y-44997369D01*
X116673777Y-45245845D01*
X116654732Y-45499995D01*
X116654732Y-45500004D01*
X86000000Y-45500004D01*
X86000000Y-43000001D01*
X93694532Y-43000001D01*
X93714364Y-43226686D01*
X93714366Y-43226697D01*
X93773258Y-43446488D01*
X93773261Y-43446497D01*
X93869431Y-43652732D01*
X93869432Y-43652734D01*
X93999954Y-43839141D01*
X94160858Y-44000045D01*
X94160861Y-44000047D01*
X94347266Y-44130568D01*
X94553504Y-44226739D01*
X94773308Y-44285635D01*
X94943214Y-44300499D01*
X94943215Y-44300500D01*
X94943216Y-44300500D01*
X95056785Y-44300500D01*
X95056785Y-44300499D01*
X95226692Y-44285635D01*
X95446496Y-44226739D01*
X95652734Y-44130568D01*
X95839139Y-44000047D01*
X96000047Y-43839139D01*
X96130568Y-43652734D01*
X96226739Y-43446496D01*
X96285635Y-43226692D01*
X96305468Y-43000001D01*
X154694532Y-43000001D01*
X154714364Y-43226686D01*
X154714366Y-43226697D01*
X154773258Y-43446488D01*
X154773261Y-43446497D01*
X154869431Y-43652732D01*
X154869432Y-43652734D01*
X154999954Y-43839141D01*
X155160858Y-44000045D01*
X155160861Y-44000047D01*
X155347266Y-44130568D01*
X155553504Y-44226739D01*
X155773308Y-44285635D01*
X155943214Y-44300499D01*
X155943215Y-44300500D01*
X155943216Y-44300500D01*
X156056785Y-44300500D01*
X156056785Y-44300499D01*
X156226692Y-44285635D01*
X156446496Y-44226739D01*
X156652734Y-44130568D01*
X156839139Y-44000047D01*
X157000047Y-43839139D01*
X157130568Y-43652734D01*
X157226739Y-43446496D01*
X157285635Y-43226692D01*
X157305468Y-43000000D01*
X157285635Y-42773308D01*
X157226739Y-42553504D01*
X157130568Y-42347266D01*
X157000047Y-42160861D01*
X157000045Y-42160858D01*
X156839141Y-41999954D01*
X156652734Y-41869432D01*
X156652732Y-41869431D01*
X156446497Y-41773261D01*
X156446488Y-41773258D01*
X156226697Y-41714366D01*
X156226687Y-41714364D01*
X156056785Y-41699500D01*
X156056784Y-41699500D01*
X155943216Y-41699500D01*
X155943215Y-41699500D01*
X155773312Y-41714364D01*
X155773302Y-41714366D01*
X155553511Y-41773258D01*
X155553502Y-41773261D01*
X155347267Y-41869431D01*
X155347265Y-41869432D01*
X155160858Y-41999954D01*
X154999954Y-42160858D01*
X154869432Y-42347265D01*
X154869431Y-42347267D01*
X154773261Y-42553502D01*
X154773258Y-42553511D01*
X154714366Y-42773302D01*
X154714364Y-42773313D01*
X154694532Y-42999998D01*
X154694532Y-43000001D01*
X96305468Y-43000001D01*
X96305468Y-43000000D01*
X96285635Y-42773308D01*
X96226739Y-42553504D01*
X96130568Y-42347266D01*
X96000047Y-42160861D01*
X96000045Y-42160858D01*
X95839141Y-41999954D01*
X95652734Y-41869432D01*
X95652732Y-41869431D01*
X95446497Y-41773261D01*
X95446488Y-41773258D01*
X95226697Y-41714366D01*
X95226687Y-41714364D01*
X95056785Y-41699500D01*
X95056784Y-41699500D01*
X94943216Y-41699500D01*
X94943215Y-41699500D01*
X94773312Y-41714364D01*
X94773302Y-41714366D01*
X94553511Y-41773258D01*
X94553502Y-41773261D01*
X94347267Y-41869431D01*
X94347265Y-41869432D01*
X94160858Y-41999954D01*
X93999954Y-42160858D01*
X93869432Y-42347265D01*
X93869431Y-42347267D01*
X93773261Y-42553502D01*
X93773258Y-42553511D01*
X93714366Y-42773302D01*
X93714364Y-42773313D01*
X93694532Y-42999998D01*
X93694532Y-43000001D01*
X86000000Y-43000001D01*
X86000000Y-41124000D01*
X86019685Y-41056961D01*
X86072489Y-41011206D01*
X86124000Y-41000000D01*
X93000000Y-41000000D01*
X93000000Y-36220002D01*
X100112677Y-36220002D01*
X100131929Y-36440062D01*
X100131930Y-36440070D01*
X100189104Y-36653445D01*
X100189105Y-36653447D01*
X100189106Y-36653450D01*
X100222106Y-36724219D01*
X100282466Y-36853662D01*
X100282468Y-36853666D01*
X100409170Y-37034615D01*
X100409175Y-37034621D01*
X100565378Y-37190824D01*
X100565384Y-37190829D01*
X100746333Y-37317531D01*
X100746335Y-37317532D01*
X100746338Y-37317534D01*
X100946550Y-37410894D01*
X101159932Y-37468070D01*
X101317123Y-37481822D01*
X101379998Y-37487323D01*
X101380000Y-37487323D01*
X101380002Y-37487323D01*
X101435017Y-37482509D01*
X101600068Y-37468070D01*
X101813450Y-37410894D01*
X102013662Y-37317534D01*
X102194620Y-37190826D01*
X102350826Y-37034620D01*
X102477534Y-36853662D01*
X102537894Y-36724218D01*
X102584066Y-36671779D01*
X102651259Y-36652627D01*
X102718141Y-36672843D01*
X102762658Y-36724219D01*
X102822899Y-36853407D01*
X102822900Y-36853409D01*
X102868258Y-36918187D01*
X103535096Y-36251349D01*
X103535051Y-36251898D01*
X103566266Y-36375162D01*
X103635813Y-36481612D01*
X103736157Y-36559713D01*
X103856422Y-36601000D01*
X103892553Y-36601000D01*
X103221811Y-37271741D01*
X103286582Y-37317094D01*
X103286592Y-37317100D01*
X103486715Y-37410419D01*
X103486729Y-37410424D01*
X103700013Y-37467573D01*
X103700023Y-37467575D01*
X103919999Y-37486821D01*
X103920001Y-37486821D01*
X104139976Y-37467575D01*
X104139986Y-37467573D01*
X104353270Y-37410424D01*
X104353284Y-37410419D01*
X104553408Y-37317100D01*
X104553420Y-37317093D01*
X104618186Y-37271742D01*
X104618187Y-37271740D01*
X103947448Y-36601000D01*
X103951569Y-36601000D01*
X104045421Y-36585339D01*
X104157251Y-36524820D01*
X104243371Y-36431269D01*
X104294448Y-36314823D01*
X104300105Y-36246552D01*
X104971740Y-36918187D01*
X104971742Y-36918186D01*
X105017093Y-36853420D01*
X105017100Y-36853408D01*
X105077342Y-36724219D01*
X105123514Y-36671779D01*
X105190707Y-36652627D01*
X105257588Y-36672842D01*
X105302106Y-36724219D01*
X105362464Y-36853658D01*
X105362468Y-36853666D01*
X105489170Y-37034615D01*
X105489175Y-37034621D01*
X105645378Y-37190824D01*
X105645384Y-37190829D01*
X105826333Y-37317531D01*
X105826335Y-37317532D01*
X105826338Y-37317534D01*
X106026550Y-37410894D01*
X106239932Y-37468070D01*
X106397123Y-37481822D01*
X106459998Y-37487323D01*
X106460000Y-37487323D01*
X106460002Y-37487323D01*
X106515017Y-37482509D01*
X106680068Y-37468070D01*
X106893450Y-37410894D01*
X107093662Y-37317534D01*
X107274620Y-37190826D01*
X107430826Y-37034620D01*
X107557534Y-36853662D01*
X107617617Y-36724811D01*
X107663790Y-36672371D01*
X107730983Y-36653219D01*
X107797865Y-36673435D01*
X107842382Y-36724811D01*
X107902464Y-36853658D01*
X107902468Y-36853666D01*
X108029170Y-37034615D01*
X108029175Y-37034621D01*
X108185378Y-37190824D01*
X108185384Y-37190829D01*
X108366333Y-37317531D01*
X108366335Y-37317532D01*
X108366338Y-37317534D01*
X108566550Y-37410894D01*
X108779932Y-37468070D01*
X108937123Y-37481822D01*
X108999998Y-37487323D01*
X109000000Y-37487323D01*
X109000002Y-37487323D01*
X109055017Y-37482509D01*
X109220068Y-37468070D01*
X109433450Y-37410894D01*
X109633662Y-37317534D01*
X109814620Y-37190826D01*
X109970826Y-37034620D01*
X110097534Y-36853662D01*
X110157617Y-36724811D01*
X110203790Y-36672371D01*
X110270983Y-36653219D01*
X110337865Y-36673435D01*
X110382382Y-36724811D01*
X110442464Y-36853658D01*
X110442468Y-36853666D01*
X110569170Y-37034615D01*
X110569175Y-37034621D01*
X110725378Y-37190824D01*
X110725384Y-37190829D01*
X110906333Y-37317531D01*
X110906335Y-37317532D01*
X110906338Y-37317534D01*
X111106550Y-37410894D01*
X111319932Y-37468070D01*
X111477123Y-37481822D01*
X111539998Y-37487323D01*
X111540000Y-37487323D01*
X111540002Y-37487323D01*
X111595017Y-37482509D01*
X111760068Y-37468070D01*
X111973450Y-37410894D01*
X112173662Y-37317534D01*
X112354620Y-37190826D01*
X112510826Y-37034620D01*
X112637534Y-36853662D01*
X112697620Y-36724806D01*
X112743788Y-36672372D01*
X112810982Y-36653219D01*
X112877863Y-36673434D01*
X112922381Y-36724810D01*
X112982466Y-36853662D01*
X112982468Y-36853666D01*
X113109170Y-37034615D01*
X113109175Y-37034621D01*
X113265378Y-37190824D01*
X113265384Y-37190829D01*
X113446333Y-37317531D01*
X113446335Y-37317532D01*
X113446338Y-37317534D01*
X113646550Y-37410894D01*
X113859932Y-37468070D01*
X114017123Y-37481822D01*
X114079998Y-37487323D01*
X114080000Y-37487323D01*
X114080002Y-37487323D01*
X114135017Y-37482509D01*
X114300068Y-37468070D01*
X114513450Y-37410894D01*
X114713662Y-37317534D01*
X114894620Y-37190826D01*
X115050826Y-37034620D01*
X115177534Y-36853662D01*
X115237617Y-36724811D01*
X115283790Y-36672371D01*
X115350983Y-36653219D01*
X115417865Y-36673435D01*
X115462382Y-36724811D01*
X115522464Y-36853658D01*
X115522468Y-36853666D01*
X115649170Y-37034615D01*
X115649175Y-37034621D01*
X115805378Y-37190824D01*
X115805384Y-37190829D01*
X115986333Y-37317531D01*
X115986335Y-37317532D01*
X115986338Y-37317534D01*
X116186550Y-37410894D01*
X116399932Y-37468070D01*
X116557123Y-37481822D01*
X116619998Y-37487323D01*
X116620000Y-37487323D01*
X116620002Y-37487323D01*
X116675017Y-37482509D01*
X116840068Y-37468070D01*
X117053450Y-37410894D01*
X117253662Y-37317534D01*
X117434620Y-37190826D01*
X117590826Y-37034620D01*
X117717534Y-36853662D01*
X117777620Y-36724806D01*
X117823788Y-36672372D01*
X117890982Y-36653219D01*
X117957863Y-36673434D01*
X118002381Y-36724810D01*
X118062466Y-36853662D01*
X118062468Y-36853666D01*
X118189170Y-37034615D01*
X118189175Y-37034621D01*
X118345378Y-37190824D01*
X118345384Y-37190829D01*
X118526333Y-37317531D01*
X118526335Y-37317532D01*
X118526338Y-37317534D01*
X118726550Y-37410894D01*
X118939932Y-37468070D01*
X119097123Y-37481822D01*
X119159998Y-37487323D01*
X119160000Y-37487323D01*
X119160002Y-37487323D01*
X119215017Y-37482509D01*
X119380068Y-37468070D01*
X119593450Y-37410894D01*
X119793662Y-37317534D01*
X119974620Y-37190826D01*
X120130826Y-37034620D01*
X120257534Y-36853662D01*
X120317617Y-36724811D01*
X120363790Y-36672371D01*
X120430983Y-36653219D01*
X120497865Y-36673435D01*
X120542382Y-36724811D01*
X120602464Y-36853658D01*
X120602468Y-36853666D01*
X120729170Y-37034615D01*
X120729175Y-37034621D01*
X120885378Y-37190824D01*
X120885384Y-37190829D01*
X121066333Y-37317531D01*
X121066335Y-37317532D01*
X121066338Y-37317534D01*
X121266550Y-37410894D01*
X121479932Y-37468070D01*
X121637123Y-37481822D01*
X121699998Y-37487323D01*
X121700000Y-37487323D01*
X121700002Y-37487323D01*
X121755016Y-37482509D01*
X121920068Y-37468070D01*
X122133450Y-37410894D01*
X122333662Y-37317534D01*
X122514620Y-37190826D01*
X122670826Y-37034620D01*
X122797534Y-36853662D01*
X122857620Y-36724806D01*
X122903788Y-36672372D01*
X122970982Y-36653219D01*
X123037863Y-36673434D01*
X123082381Y-36724810D01*
X123142466Y-36853662D01*
X123142468Y-36853666D01*
X123269170Y-37034615D01*
X123269175Y-37034621D01*
X123425378Y-37190824D01*
X123425384Y-37190829D01*
X123606333Y-37317531D01*
X123606335Y-37317532D01*
X123606338Y-37317534D01*
X123806550Y-37410894D01*
X124019932Y-37468070D01*
X124177123Y-37481822D01*
X124239998Y-37487323D01*
X124240000Y-37487323D01*
X124240002Y-37487323D01*
X124295017Y-37482509D01*
X124460068Y-37468070D01*
X124673450Y-37410894D01*
X124873662Y-37317534D01*
X125054620Y-37190826D01*
X125210826Y-37034620D01*
X125337534Y-36853662D01*
X125397617Y-36724811D01*
X125443790Y-36672371D01*
X125510983Y-36653219D01*
X125577865Y-36673435D01*
X125622382Y-36724811D01*
X125682464Y-36853658D01*
X125682468Y-36853666D01*
X125809170Y-37034615D01*
X125809175Y-37034621D01*
X125965378Y-37190824D01*
X125965384Y-37190829D01*
X126146333Y-37317531D01*
X126146335Y-37317532D01*
X126146338Y-37317534D01*
X126346550Y-37410894D01*
X126559932Y-37468070D01*
X126717123Y-37481822D01*
X126779998Y-37487323D01*
X126780000Y-37487323D01*
X126780002Y-37487323D01*
X126835017Y-37482509D01*
X127000068Y-37468070D01*
X127213450Y-37410894D01*
X127413662Y-37317534D01*
X127594620Y-37190826D01*
X127750826Y-37034620D01*
X127877534Y-36853662D01*
X127937620Y-36724806D01*
X127983788Y-36672372D01*
X128050982Y-36653219D01*
X128117863Y-36673434D01*
X128162381Y-36724810D01*
X128222466Y-36853662D01*
X128222468Y-36853666D01*
X128349170Y-37034615D01*
X128349175Y-37034621D01*
X128505378Y-37190824D01*
X128505384Y-37190829D01*
X128686333Y-37317531D01*
X128686335Y-37317532D01*
X128686338Y-37317534D01*
X128886550Y-37410894D01*
X129099932Y-37468070D01*
X129257123Y-37481822D01*
X129319998Y-37487323D01*
X129320000Y-37487323D01*
X129320002Y-37487323D01*
X129375017Y-37482509D01*
X129540068Y-37468070D01*
X129753450Y-37410894D01*
X129953662Y-37317534D01*
X130134620Y-37190826D01*
X130290826Y-37034620D01*
X130417534Y-36853662D01*
X130477617Y-36724811D01*
X130523790Y-36672371D01*
X130590983Y-36653219D01*
X130657865Y-36673435D01*
X130702382Y-36724811D01*
X130762464Y-36853658D01*
X130762468Y-36853666D01*
X130889170Y-37034615D01*
X130889175Y-37034621D01*
X131045378Y-37190824D01*
X131045384Y-37190829D01*
X131226333Y-37317531D01*
X131226335Y-37317532D01*
X131226338Y-37317534D01*
X131426550Y-37410894D01*
X131639932Y-37468070D01*
X131797123Y-37481822D01*
X131859998Y-37487323D01*
X131860000Y-37487323D01*
X131860002Y-37487323D01*
X131915016Y-37482509D01*
X132080068Y-37468070D01*
X132293450Y-37410894D01*
X132493662Y-37317534D01*
X132674620Y-37190826D01*
X132830826Y-37034620D01*
X132957534Y-36853662D01*
X133017620Y-36724806D01*
X133063788Y-36672372D01*
X133130982Y-36653219D01*
X133197863Y-36673434D01*
X133242381Y-36724810D01*
X133302466Y-36853662D01*
X133302468Y-36853666D01*
X133429170Y-37034615D01*
X133429175Y-37034621D01*
X133585378Y-37190824D01*
X133585384Y-37190829D01*
X133766333Y-37317531D01*
X133766335Y-37317532D01*
X133766338Y-37317534D01*
X133966550Y-37410894D01*
X134179932Y-37468070D01*
X134337123Y-37481822D01*
X134399998Y-37487323D01*
X134400000Y-37487323D01*
X134400002Y-37487323D01*
X134455017Y-37482509D01*
X134620068Y-37468070D01*
X134833450Y-37410894D01*
X135033662Y-37317534D01*
X135214620Y-37190826D01*
X135370826Y-37034620D01*
X135497534Y-36853662D01*
X135557617Y-36724811D01*
X135603790Y-36672371D01*
X135670983Y-36653219D01*
X135737865Y-36673435D01*
X135782382Y-36724811D01*
X135842464Y-36853658D01*
X135842468Y-36853666D01*
X135969170Y-37034615D01*
X135969175Y-37034621D01*
X136125378Y-37190824D01*
X136125384Y-37190829D01*
X136306333Y-37317531D01*
X136306335Y-37317532D01*
X136306338Y-37317534D01*
X136506550Y-37410894D01*
X136719932Y-37468070D01*
X136877123Y-37481822D01*
X136939998Y-37487323D01*
X136940000Y-37487323D01*
X136940002Y-37487323D01*
X136995017Y-37482509D01*
X137160068Y-37468070D01*
X137373450Y-37410894D01*
X137573662Y-37317534D01*
X137754620Y-37190826D01*
X137910826Y-37034620D01*
X138037534Y-36853662D01*
X138097617Y-36724811D01*
X138143790Y-36672371D01*
X138210983Y-36653219D01*
X138277865Y-36673435D01*
X138322382Y-36724811D01*
X138382464Y-36853658D01*
X138382468Y-36853666D01*
X138509170Y-37034615D01*
X138509175Y-37034621D01*
X138665378Y-37190824D01*
X138665384Y-37190829D01*
X138846333Y-37317531D01*
X138846335Y-37317532D01*
X138846338Y-37317534D01*
X139046550Y-37410894D01*
X139259932Y-37468070D01*
X139417123Y-37481822D01*
X139479998Y-37487323D01*
X139480000Y-37487323D01*
X139480002Y-37487323D01*
X139535017Y-37482509D01*
X139700068Y-37468070D01*
X139913450Y-37410894D01*
X140113662Y-37317534D01*
X140294620Y-37190826D01*
X140450826Y-37034620D01*
X140577534Y-36853662D01*
X140637617Y-36724811D01*
X140683790Y-36672371D01*
X140750983Y-36653219D01*
X140817865Y-36673435D01*
X140862382Y-36724811D01*
X140922464Y-36853658D01*
X140922468Y-36853666D01*
X141049170Y-37034615D01*
X141049175Y-37034621D01*
X141205378Y-37190824D01*
X141205384Y-37190829D01*
X141386333Y-37317531D01*
X141386335Y-37317532D01*
X141386338Y-37317534D01*
X141586550Y-37410894D01*
X141799932Y-37468070D01*
X141957123Y-37481822D01*
X142019998Y-37487323D01*
X142020000Y-37487323D01*
X142020002Y-37487323D01*
X142075016Y-37482509D01*
X142240068Y-37468070D01*
X142453450Y-37410894D01*
X142653662Y-37317534D01*
X142834620Y-37190826D01*
X142990826Y-37034620D01*
X143117534Y-36853662D01*
X143177617Y-36724811D01*
X143223790Y-36672371D01*
X143290983Y-36653219D01*
X143357865Y-36673435D01*
X143402382Y-36724811D01*
X143462464Y-36853658D01*
X143462468Y-36853666D01*
X143589170Y-37034615D01*
X143589175Y-37034621D01*
X143745378Y-37190824D01*
X143745384Y-37190829D01*
X143926333Y-37317531D01*
X143926335Y-37317532D01*
X143926338Y-37317534D01*
X144126550Y-37410894D01*
X144339932Y-37468070D01*
X144497123Y-37481822D01*
X144559998Y-37487323D01*
X144560000Y-37487323D01*
X144560002Y-37487323D01*
X144615017Y-37482509D01*
X144780068Y-37468070D01*
X144993450Y-37410894D01*
X145193662Y-37317534D01*
X145374620Y-37190826D01*
X145530826Y-37034620D01*
X145657534Y-36853662D01*
X145717617Y-36724811D01*
X145763790Y-36672371D01*
X145830983Y-36653219D01*
X145897865Y-36673435D01*
X145942382Y-36724811D01*
X146002464Y-36853658D01*
X146002468Y-36853666D01*
X146129170Y-37034615D01*
X146129175Y-37034621D01*
X146285378Y-37190824D01*
X146285384Y-37190829D01*
X146466333Y-37317531D01*
X146466335Y-37317532D01*
X146466338Y-37317534D01*
X146666550Y-37410894D01*
X146879932Y-37468070D01*
X147037123Y-37481822D01*
X147099998Y-37487323D01*
X147100000Y-37487323D01*
X147100002Y-37487323D01*
X147155017Y-37482509D01*
X147320068Y-37468070D01*
X147533450Y-37410894D01*
X147733662Y-37317534D01*
X147914620Y-37190826D01*
X148070826Y-37034620D01*
X148197534Y-36853662D01*
X148257617Y-36724811D01*
X148303790Y-36672371D01*
X148370983Y-36653219D01*
X148437865Y-36673435D01*
X148482382Y-36724811D01*
X148542464Y-36853658D01*
X148542468Y-36853666D01*
X148669170Y-37034615D01*
X148669175Y-37034621D01*
X148825378Y-37190824D01*
X148825384Y-37190829D01*
X149006333Y-37317531D01*
X149006335Y-37317532D01*
X149006338Y-37317534D01*
X149206550Y-37410894D01*
X149419932Y-37468070D01*
X149577123Y-37481822D01*
X149639998Y-37487323D01*
X149640000Y-37487323D01*
X149640002Y-37487323D01*
X149695017Y-37482509D01*
X149860068Y-37468070D01*
X150073450Y-37410894D01*
X150273662Y-37317534D01*
X150454620Y-37190826D01*
X150610826Y-37034620D01*
X150737534Y-36853662D01*
X150830894Y-36653450D01*
X150888070Y-36440068D01*
X150907323Y-36220000D01*
X150904532Y-36188102D01*
X150893748Y-36064838D01*
X150888070Y-35999932D01*
X150830894Y-35786550D01*
X150737534Y-35586339D01*
X150610826Y-35405380D01*
X150454620Y-35249174D01*
X150454616Y-35249171D01*
X150454615Y-35249170D01*
X150273666Y-35122468D01*
X150273662Y-35122466D01*
X150273660Y-35122465D01*
X150073450Y-35029106D01*
X150073447Y-35029105D01*
X150073445Y-35029104D01*
X149860070Y-34971930D01*
X149860062Y-34971929D01*
X149640002Y-34952677D01*
X149639998Y-34952677D01*
X149419937Y-34971929D01*
X149419929Y-34971930D01*
X149206554Y-35029104D01*
X149206548Y-35029107D01*
X149006340Y-35122465D01*
X149006338Y-35122466D01*
X148825377Y-35249175D01*
X148669175Y-35405377D01*
X148542466Y-35586338D01*
X148542465Y-35586340D01*
X148482382Y-35715189D01*
X148436209Y-35767628D01*
X148369016Y-35786780D01*
X148302135Y-35766564D01*
X148257618Y-35715189D01*
X148197652Y-35586593D01*
X148197534Y-35586339D01*
X148070826Y-35405380D01*
X147914620Y-35249174D01*
X147914616Y-35249171D01*
X147914615Y-35249170D01*
X147733666Y-35122468D01*
X147733662Y-35122466D01*
X147733660Y-35122465D01*
X147533450Y-35029106D01*
X147533447Y-35029105D01*
X147533445Y-35029104D01*
X147320070Y-34971930D01*
X147320062Y-34971929D01*
X147100002Y-34952677D01*
X147099998Y-34952677D01*
X146879937Y-34971929D01*
X146879929Y-34971930D01*
X146666554Y-35029104D01*
X146666548Y-35029107D01*
X146466340Y-35122465D01*
X146466338Y-35122466D01*
X146285377Y-35249175D01*
X146129175Y-35405377D01*
X146002466Y-35586338D01*
X146002465Y-35586340D01*
X145942382Y-35715189D01*
X145896209Y-35767628D01*
X145829016Y-35786780D01*
X145762135Y-35766564D01*
X145717618Y-35715189D01*
X145657652Y-35586593D01*
X145657534Y-35586339D01*
X145530826Y-35405380D01*
X145374620Y-35249174D01*
X145374616Y-35249171D01*
X145374615Y-35249170D01*
X145193666Y-35122468D01*
X145193662Y-35122466D01*
X145193660Y-35122465D01*
X144993450Y-35029106D01*
X144993447Y-35029105D01*
X144993445Y-35029104D01*
X144780070Y-34971930D01*
X144780062Y-34971929D01*
X144560002Y-34952677D01*
X144559998Y-34952677D01*
X144339937Y-34971929D01*
X144339929Y-34971930D01*
X144126554Y-35029104D01*
X144126548Y-35029107D01*
X143926340Y-35122465D01*
X143926338Y-35122466D01*
X143745377Y-35249175D01*
X143589175Y-35405377D01*
X143462466Y-35586338D01*
X143462465Y-35586340D01*
X143402382Y-35715189D01*
X143356209Y-35767628D01*
X143289016Y-35786780D01*
X143222135Y-35766564D01*
X143177618Y-35715189D01*
X143117652Y-35586593D01*
X143117534Y-35586339D01*
X142990826Y-35405380D01*
X142834620Y-35249174D01*
X142834616Y-35249171D01*
X142834615Y-35249170D01*
X142653666Y-35122468D01*
X142653662Y-35122466D01*
X142653660Y-35122465D01*
X142453450Y-35029106D01*
X142453447Y-35029105D01*
X142453445Y-35029104D01*
X142240070Y-34971930D01*
X142240062Y-34971929D01*
X142020002Y-34952677D01*
X142019998Y-34952677D01*
X141799937Y-34971929D01*
X141799929Y-34971930D01*
X141586554Y-35029104D01*
X141586548Y-35029107D01*
X141386340Y-35122465D01*
X141386338Y-35122466D01*
X141205377Y-35249175D01*
X141049175Y-35405377D01*
X140922466Y-35586338D01*
X140922465Y-35586340D01*
X140862382Y-35715189D01*
X140816209Y-35767628D01*
X140749016Y-35786780D01*
X140682135Y-35766564D01*
X140637618Y-35715189D01*
X140577652Y-35586593D01*
X140577534Y-35586339D01*
X140450826Y-35405380D01*
X140294620Y-35249174D01*
X140294616Y-35249171D01*
X140294615Y-35249170D01*
X140113666Y-35122468D01*
X140113662Y-35122466D01*
X140113661Y-35122465D01*
X139913450Y-35029106D01*
X139913447Y-35029105D01*
X139913445Y-35029104D01*
X139700070Y-34971930D01*
X139700062Y-34971929D01*
X139480002Y-34952677D01*
X139479998Y-34952677D01*
X139259937Y-34971929D01*
X139259929Y-34971930D01*
X139046554Y-35029104D01*
X139046548Y-35029107D01*
X138846340Y-35122465D01*
X138846338Y-35122466D01*
X138665377Y-35249175D01*
X138509175Y-35405377D01*
X138382466Y-35586338D01*
X138382465Y-35586340D01*
X138322382Y-35715189D01*
X138276209Y-35767628D01*
X138209016Y-35786780D01*
X138142135Y-35766564D01*
X138097618Y-35715189D01*
X138037652Y-35586593D01*
X138037534Y-35586339D01*
X137910826Y-35405380D01*
X137754620Y-35249174D01*
X137754616Y-35249171D01*
X137754615Y-35249170D01*
X137573666Y-35122468D01*
X137573662Y-35122466D01*
X137573661Y-35122465D01*
X137373450Y-35029106D01*
X137373447Y-35029105D01*
X137373445Y-35029104D01*
X137160070Y-34971930D01*
X137160062Y-34971929D01*
X136940002Y-34952677D01*
X136939998Y-34952677D01*
X136719937Y-34971929D01*
X136719929Y-34971930D01*
X136506554Y-35029104D01*
X136506548Y-35029107D01*
X136306340Y-35122465D01*
X136306338Y-35122466D01*
X136125377Y-35249175D01*
X135969175Y-35405377D01*
X135842466Y-35586338D01*
X135842465Y-35586340D01*
X135782382Y-35715189D01*
X135736209Y-35767628D01*
X135669016Y-35786780D01*
X135602135Y-35766564D01*
X135557618Y-35715189D01*
X135497652Y-35586593D01*
X135497534Y-35586339D01*
X135370826Y-35405380D01*
X135214620Y-35249174D01*
X135214616Y-35249171D01*
X135214615Y-35249170D01*
X135033666Y-35122468D01*
X135033662Y-35122466D01*
X135033662Y-35122465D01*
X134833450Y-35029106D01*
X134833447Y-35029105D01*
X134833445Y-35029104D01*
X134620070Y-34971930D01*
X134620062Y-34971929D01*
X134400002Y-34952677D01*
X134399998Y-34952677D01*
X134179937Y-34971929D01*
X134179929Y-34971930D01*
X133966554Y-35029104D01*
X133966548Y-35029107D01*
X133766340Y-35122465D01*
X133766338Y-35122466D01*
X133585377Y-35249175D01*
X133429175Y-35405377D01*
X133302466Y-35586338D01*
X133302465Y-35586340D01*
X133242382Y-35715189D01*
X133196209Y-35767628D01*
X133129016Y-35786780D01*
X133062135Y-35766564D01*
X133017618Y-35715189D01*
X132957652Y-35586593D01*
X132957534Y-35586339D01*
X132830826Y-35405380D01*
X132674620Y-35249174D01*
X132674616Y-35249171D01*
X132674615Y-35249170D01*
X132493666Y-35122468D01*
X132493662Y-35122466D01*
X132493662Y-35122465D01*
X132293450Y-35029106D01*
X132293447Y-35029105D01*
X132293445Y-35029104D01*
X132080070Y-34971930D01*
X132080062Y-34971929D01*
X131860002Y-34952677D01*
X131859998Y-34952677D01*
X131639937Y-34971929D01*
X131639929Y-34971930D01*
X131426554Y-35029104D01*
X131426548Y-35029107D01*
X131226340Y-35122465D01*
X131226338Y-35122466D01*
X131045377Y-35249175D01*
X130889175Y-35405377D01*
X130762466Y-35586338D01*
X130762465Y-35586340D01*
X130702382Y-35715189D01*
X130656209Y-35767628D01*
X130589016Y-35786780D01*
X130522135Y-35766564D01*
X130477618Y-35715189D01*
X130417652Y-35586593D01*
X130417534Y-35586339D01*
X130290826Y-35405380D01*
X130134620Y-35249174D01*
X130134616Y-35249171D01*
X130134615Y-35249170D01*
X129953666Y-35122468D01*
X129953662Y-35122466D01*
X129953662Y-35122465D01*
X129753450Y-35029106D01*
X129753447Y-35029105D01*
X129753445Y-35029104D01*
X129540070Y-34971930D01*
X129540062Y-34971929D01*
X129320002Y-34952677D01*
X129319998Y-34952677D01*
X129099937Y-34971929D01*
X129099929Y-34971930D01*
X128886554Y-35029104D01*
X128886548Y-35029107D01*
X128686340Y-35122465D01*
X128686338Y-35122466D01*
X128505377Y-35249175D01*
X128349175Y-35405377D01*
X128222466Y-35586338D01*
X128222465Y-35586340D01*
X128162382Y-35715189D01*
X128116209Y-35767628D01*
X128049016Y-35786780D01*
X127982135Y-35766564D01*
X127937618Y-35715189D01*
X127877652Y-35586593D01*
X127877534Y-35586339D01*
X127750826Y-35405380D01*
X127594620Y-35249174D01*
X127594616Y-35249171D01*
X127594615Y-35249170D01*
X127413666Y-35122468D01*
X127413662Y-35122466D01*
X127413662Y-35122465D01*
X127213450Y-35029106D01*
X127213447Y-35029105D01*
X127213445Y-35029104D01*
X127000070Y-34971930D01*
X127000062Y-34971929D01*
X126780002Y-34952677D01*
X126779998Y-34952677D01*
X126559937Y-34971929D01*
X126559929Y-34971930D01*
X126346554Y-35029104D01*
X126346548Y-35029107D01*
X126146340Y-35122465D01*
X126146338Y-35122466D01*
X125965377Y-35249175D01*
X125809175Y-35405377D01*
X125682466Y-35586338D01*
X125682465Y-35586340D01*
X125622382Y-35715189D01*
X125576209Y-35767628D01*
X125509016Y-35786780D01*
X125442135Y-35766564D01*
X125397618Y-35715189D01*
X125337652Y-35586593D01*
X125337534Y-35586339D01*
X125210826Y-35405380D01*
X125054620Y-35249174D01*
X125054616Y-35249171D01*
X125054615Y-35249170D01*
X124873666Y-35122468D01*
X124873662Y-35122466D01*
X124873662Y-35122465D01*
X124673450Y-35029106D01*
X124673447Y-35029105D01*
X124673445Y-35029104D01*
X124460070Y-34971930D01*
X124460062Y-34971929D01*
X124240002Y-34952677D01*
X124239998Y-34952677D01*
X124019937Y-34971929D01*
X124019929Y-34971930D01*
X123806554Y-35029104D01*
X123806548Y-35029107D01*
X123606340Y-35122465D01*
X123606338Y-35122466D01*
X123425377Y-35249175D01*
X123269175Y-35405377D01*
X123142466Y-35586338D01*
X123142465Y-35586340D01*
X123082382Y-35715189D01*
X123036209Y-35767628D01*
X122969016Y-35786780D01*
X122902135Y-35766564D01*
X122857618Y-35715189D01*
X122797652Y-35586593D01*
X122797534Y-35586339D01*
X122670826Y-35405380D01*
X122514620Y-35249174D01*
X122514616Y-35249171D01*
X122514615Y-35249170D01*
X122333666Y-35122468D01*
X122333662Y-35122466D01*
X122333662Y-35122465D01*
X122133450Y-35029106D01*
X122133447Y-35029105D01*
X122133445Y-35029104D01*
X121920070Y-34971930D01*
X121920062Y-34971929D01*
X121700002Y-34952677D01*
X121699998Y-34952677D01*
X121479937Y-34971929D01*
X121479929Y-34971930D01*
X121266554Y-35029104D01*
X121266548Y-35029107D01*
X121066340Y-35122465D01*
X121066338Y-35122466D01*
X120885377Y-35249175D01*
X120729175Y-35405377D01*
X120602466Y-35586338D01*
X120602465Y-35586340D01*
X120542382Y-35715189D01*
X120496209Y-35767628D01*
X120429016Y-35786780D01*
X120362135Y-35766564D01*
X120317618Y-35715189D01*
X120257652Y-35586593D01*
X120257534Y-35586339D01*
X120130826Y-35405380D01*
X119974620Y-35249174D01*
X119974616Y-35249171D01*
X119974615Y-35249170D01*
X119793666Y-35122468D01*
X119793662Y-35122466D01*
X119793662Y-35122465D01*
X119593450Y-35029106D01*
X119593447Y-35029105D01*
X119593445Y-35029104D01*
X119380070Y-34971930D01*
X119380062Y-34971929D01*
X119160002Y-34952677D01*
X119159998Y-34952677D01*
X118939937Y-34971929D01*
X118939929Y-34971930D01*
X118726554Y-35029104D01*
X118726548Y-35029107D01*
X118526340Y-35122465D01*
X118526338Y-35122466D01*
X118345377Y-35249175D01*
X118189175Y-35405377D01*
X118062466Y-35586338D01*
X118062465Y-35586340D01*
X118002382Y-35715189D01*
X117956209Y-35767628D01*
X117889016Y-35786780D01*
X117822135Y-35766564D01*
X117777618Y-35715189D01*
X117717652Y-35586593D01*
X117717534Y-35586339D01*
X117590826Y-35405380D01*
X117434620Y-35249174D01*
X117434616Y-35249171D01*
X117434615Y-35249170D01*
X117253666Y-35122468D01*
X117253662Y-35122466D01*
X117253662Y-35122465D01*
X117053450Y-35029106D01*
X117053447Y-35029105D01*
X117053445Y-35029104D01*
X116840070Y-34971930D01*
X116840062Y-34971929D01*
X116620002Y-34952677D01*
X116619998Y-34952677D01*
X116399937Y-34971929D01*
X116399929Y-34971930D01*
X116186554Y-35029104D01*
X116186548Y-35029107D01*
X115986340Y-35122465D01*
X115986338Y-35122466D01*
X115805377Y-35249175D01*
X115649175Y-35405377D01*
X115522466Y-35586338D01*
X115522465Y-35586340D01*
X115462382Y-35715189D01*
X115416209Y-35767628D01*
X115349016Y-35786780D01*
X115282135Y-35766564D01*
X115237618Y-35715189D01*
X115177652Y-35586593D01*
X115177534Y-35586339D01*
X115050826Y-35405380D01*
X114894620Y-35249174D01*
X114894616Y-35249171D01*
X114894615Y-35249170D01*
X114713666Y-35122468D01*
X114713662Y-35122466D01*
X114713662Y-35122465D01*
X114513450Y-35029106D01*
X114513447Y-35029105D01*
X114513445Y-35029104D01*
X114300070Y-34971930D01*
X114300062Y-34971929D01*
X114080002Y-34952677D01*
X114079998Y-34952677D01*
X113859937Y-34971929D01*
X113859929Y-34971930D01*
X113646554Y-35029104D01*
X113646548Y-35029107D01*
X113446340Y-35122465D01*
X113446338Y-35122466D01*
X113265377Y-35249175D01*
X113109175Y-35405377D01*
X112982466Y-35586338D01*
X112982465Y-35586340D01*
X112922382Y-35715189D01*
X112876209Y-35767628D01*
X112809016Y-35786780D01*
X112742135Y-35766564D01*
X112697618Y-35715189D01*
X112637652Y-35586593D01*
X112637534Y-35586339D01*
X112510826Y-35405380D01*
X112354620Y-35249174D01*
X112354616Y-35249171D01*
X112354615Y-35249170D01*
X112173666Y-35122468D01*
X112173662Y-35122466D01*
X112173662Y-35122465D01*
X111973450Y-35029106D01*
X111973447Y-35029105D01*
X111973445Y-35029104D01*
X111760070Y-34971930D01*
X111760062Y-34971929D01*
X111540002Y-34952677D01*
X111539998Y-34952677D01*
X111319937Y-34971929D01*
X111319929Y-34971930D01*
X111106554Y-35029104D01*
X111106548Y-35029107D01*
X110906340Y-35122465D01*
X110906338Y-35122466D01*
X110725377Y-35249175D01*
X110569175Y-35405377D01*
X110442466Y-35586338D01*
X110442465Y-35586340D01*
X110382382Y-35715189D01*
X110336209Y-35767628D01*
X110269016Y-35786780D01*
X110202135Y-35766564D01*
X110157618Y-35715189D01*
X110097652Y-35586593D01*
X110097534Y-35586339D01*
X109970826Y-35405380D01*
X109814620Y-35249174D01*
X109814616Y-35249171D01*
X109814615Y-35249170D01*
X109633666Y-35122468D01*
X109633662Y-35122466D01*
X109633662Y-35122465D01*
X109433450Y-35029106D01*
X109433447Y-35029105D01*
X109433445Y-35029104D01*
X109220070Y-34971930D01*
X109220062Y-34971929D01*
X109000002Y-34952677D01*
X108999998Y-34952677D01*
X108779937Y-34971929D01*
X108779929Y-34971930D01*
X108566554Y-35029104D01*
X108566548Y-35029107D01*
X108366340Y-35122465D01*
X108366338Y-35122466D01*
X108185377Y-35249175D01*
X108029175Y-35405377D01*
X107902466Y-35586338D01*
X107902465Y-35586340D01*
X107842382Y-35715189D01*
X107796209Y-35767628D01*
X107729016Y-35786780D01*
X107662135Y-35766564D01*
X107617618Y-35715189D01*
X107557652Y-35586593D01*
X107557534Y-35586339D01*
X107430826Y-35405380D01*
X107274620Y-35249174D01*
X107274616Y-35249171D01*
X107274615Y-35249170D01*
X107093666Y-35122468D01*
X107093662Y-35122466D01*
X107093662Y-35122465D01*
X106893450Y-35029106D01*
X106893447Y-35029105D01*
X106893445Y-35029104D01*
X106680070Y-34971930D01*
X106680062Y-34971929D01*
X106460002Y-34952677D01*
X106459998Y-34952677D01*
X106239937Y-34971929D01*
X106239929Y-34971930D01*
X106026554Y-35029104D01*
X106026548Y-35029107D01*
X105826340Y-35122465D01*
X105826338Y-35122466D01*
X105645377Y-35249175D01*
X105489175Y-35405377D01*
X105362467Y-35586337D01*
X105362466Y-35586339D01*
X105362348Y-35586593D01*
X105302105Y-35715782D01*
X105255932Y-35768221D01*
X105188738Y-35787372D01*
X105121857Y-35767156D01*
X105077341Y-35715780D01*
X105017100Y-35586593D01*
X105017099Y-35586591D01*
X104971740Y-35521811D01*
X104304903Y-36188648D01*
X104304949Y-36188102D01*
X104273734Y-36064838D01*
X104204187Y-35958388D01*
X104103843Y-35880287D01*
X103983578Y-35839000D01*
X103947445Y-35839000D01*
X104618187Y-35168258D01*
X104553409Y-35122900D01*
X104553407Y-35122899D01*
X104353284Y-35029580D01*
X104353270Y-35029575D01*
X104139986Y-34972426D01*
X104139976Y-34972424D01*
X103920001Y-34953179D01*
X103919999Y-34953179D01*
X103700023Y-34972424D01*
X103700013Y-34972426D01*
X103486729Y-35029575D01*
X103486720Y-35029579D01*
X103286586Y-35122903D01*
X103221812Y-35168257D01*
X103221811Y-35168258D01*
X103892552Y-35839000D01*
X103888431Y-35839000D01*
X103794579Y-35854661D01*
X103682749Y-35915180D01*
X103596629Y-36008731D01*
X103545552Y-36125177D01*
X103539894Y-36193447D01*
X102868258Y-35521811D01*
X102868257Y-35521812D01*
X102822903Y-35586586D01*
X102762658Y-35715781D01*
X102716485Y-35768220D01*
X102649292Y-35787372D01*
X102582411Y-35767156D01*
X102537894Y-35715781D01*
X102477652Y-35586593D01*
X102477534Y-35586339D01*
X102350826Y-35405380D01*
X102194620Y-35249174D01*
X102194616Y-35249171D01*
X102194615Y-35249170D01*
X102013666Y-35122468D01*
X102013662Y-35122466D01*
X102013662Y-35122465D01*
X101813450Y-35029106D01*
X101813447Y-35029105D01*
X101813445Y-35029104D01*
X101600070Y-34971930D01*
X101600062Y-34971929D01*
X101380002Y-34952677D01*
X101379998Y-34952677D01*
X101159937Y-34971929D01*
X101159929Y-34971930D01*
X100946554Y-35029104D01*
X100946548Y-35029107D01*
X100746340Y-35122465D01*
X100746338Y-35122466D01*
X100565377Y-35249175D01*
X100409175Y-35405377D01*
X100282466Y-35586338D01*
X100282465Y-35586340D01*
X100189107Y-35786548D01*
X100189104Y-35786554D01*
X100131930Y-35999929D01*
X100131929Y-35999937D01*
X100112677Y-36219997D01*
X100112677Y-36220002D01*
X93000000Y-36220002D01*
X93000000Y-34124000D01*
X93019685Y-34056961D01*
X93072489Y-34011206D01*
X93124000Y-34000000D01*
X157876000Y-34000000D01*
X157943039Y-34019685D01*
G37*
%TD.AperFunction*%
%TD*%
M02*
