M48
; DRILL file {KiCad 7.0.5} date Tue Feb 27 08:06:40 2024
; FORMAT={-:-/ absolute / inch / decimal}
; #@! TF.CreationDate,2024-02-27T08:06:40+01:00
; #@! TF.GenerationSoftware,Kicad,Pcbnew,7.0.5
; #@! TF.FileFunction,Plated,1,4,PTH
FMAT,2
INCH
; #@! TA.AperFunction,Plated,PTH,ComponentDrill
T1C0.0280
; #@! TA.AperFunction,Plated,PTH,ComponentDrill
T2C0.0295
; #@! TA.AperFunction,Plated,PTH,ComponentDrill
T3C0.0300
; #@! TA.AperFunction,Plated,PTH,ComponentDrill
T4C0.0472
%
G90
G05
T1
X6.2886Y-2.1728
X6.2886Y-2.2728
X6.2886Y-2.3728
X6.2886Y-2.4728
X6.3886Y-2.1728
X6.3886Y-2.2728
X6.3886Y-2.3728
X6.3886Y-2.4728
T2
X5.8083Y-2.4472
X5.8083Y-2.5472
X5.8583Y-2.4972
T3
X3.9913Y-1.426
X3.9913Y-2.126
X4.0913Y-1.426
X4.0913Y-2.126
X4.1913Y-1.426
X4.1913Y-2.126
X4.2913Y-1.426
X4.2913Y-2.126
X4.3657Y-2.5646
X4.3657Y-2.6646
X4.3657Y-2.7646
X4.3657Y-2.8646
X4.3913Y-1.426
X4.3913Y-2.126
X4.4913Y-1.426
X4.4913Y-2.126
X4.5913Y-1.426
X4.5913Y-2.126
X4.6913Y-1.426
X4.6913Y-2.126
X4.7913Y-1.426
X4.7913Y-2.126
X4.8913Y-1.426
X4.8913Y-2.126
X4.9913Y-1.426
X4.9913Y-2.126
X5.0913Y-1.426
X5.0913Y-2.126
X5.1913Y-1.426
X5.1913Y-2.126
X5.2913Y-1.426
X5.2913Y-2.126
X5.3913Y-1.426
X5.3913Y-2.126
X5.4913Y-1.426
X5.4913Y-2.126
X5.5913Y-1.426
X5.5913Y-2.126
X5.6913Y-1.426
X5.6913Y-2.126
X5.7913Y-1.426
X5.7913Y-2.126
X5.8913Y-1.426
X5.8913Y-2.126
X6.1047Y-2.2976
X6.1047Y-2.3976
X6.1047Y-2.4976
T4
X4.6598Y-1.7913
X5.2598Y-1.7913
X5.7858Y-2.6929
X6.3858Y-2.6929
T0
M30
