%TF.GenerationSoftware,KiCad,Pcbnew,7.0.5*%
%TF.CreationDate,2024-02-27T08:06:29+01:00*%
%TF.ProjectId,Zeitmessung,5a656974-6d65-4737-9375-6e672e6b6963,rev?*%
%TF.SameCoordinates,Original*%
%TF.FileFunction,Legend,Top*%
%TF.FilePolarity,Positive*%
%FSLAX46Y46*%
G04 Gerber Fmt 4.6, Leading zero omitted, Abs format (unit mm)*
G04 Created by KiCad (PCBNEW 7.0.5) date 2024-02-27 08:06:29*
%MOMM*%
%LPD*%
G01*
G04 APERTURE LIST*
%ADD10C,0.150000*%
%ADD11C,0.100000*%
%ADD12C,0.120000*%
G04 APERTURE END LIST*
D10*
X86000000Y-76000000D02*
X86000000Y-41000000D01*
X86000000Y-41000000D02*
X93000000Y-41000000D01*
X158000000Y-83000000D02*
X93000000Y-83000000D01*
X93000000Y-41000000D02*
X93000000Y-34000000D01*
X165000000Y-76000000D02*
X158000000Y-76000000D01*
X93000000Y-34000000D02*
X158000000Y-34000000D01*
X158000000Y-34000000D02*
X158000000Y-41000000D01*
X158000000Y-41000000D02*
X165000000Y-41000000D01*
X158000000Y-76000000D02*
X158000000Y-83000000D01*
X93000000Y-83000000D02*
X93000000Y-76000000D01*
X93000000Y-76000000D02*
X86000000Y-76000000D01*
X165000000Y-41000000D02*
X165000000Y-76000000D01*
%TO.C,H1*%
X94238095Y-40254819D02*
X94238095Y-39254819D01*
X94238095Y-39731009D02*
X94809523Y-39731009D01*
X94809523Y-40254819D02*
X94809523Y-39254819D01*
X95809523Y-40254819D02*
X95238095Y-40254819D01*
X95523809Y-40254819D02*
X95523809Y-39254819D01*
X95523809Y-39254819D02*
X95428571Y-39397676D01*
X95428571Y-39397676D02*
X95333333Y-39492914D01*
X95333333Y-39492914D02*
X95238095Y-39540533D01*
%TO.C,C5*%
X160733333Y-50979580D02*
X160685714Y-51027200D01*
X160685714Y-51027200D02*
X160542857Y-51074819D01*
X160542857Y-51074819D02*
X160447619Y-51074819D01*
X160447619Y-51074819D02*
X160304762Y-51027200D01*
X160304762Y-51027200D02*
X160209524Y-50931961D01*
X160209524Y-50931961D02*
X160161905Y-50836723D01*
X160161905Y-50836723D02*
X160114286Y-50646247D01*
X160114286Y-50646247D02*
X160114286Y-50503390D01*
X160114286Y-50503390D02*
X160161905Y-50312914D01*
X160161905Y-50312914D02*
X160209524Y-50217676D01*
X160209524Y-50217676D02*
X160304762Y-50122438D01*
X160304762Y-50122438D02*
X160447619Y-50074819D01*
X160447619Y-50074819D02*
X160542857Y-50074819D01*
X160542857Y-50074819D02*
X160685714Y-50122438D01*
X160685714Y-50122438D02*
X160733333Y-50170057D01*
X161638095Y-50074819D02*
X161161905Y-50074819D01*
X161161905Y-50074819D02*
X161114286Y-50551009D01*
X161114286Y-50551009D02*
X161161905Y-50503390D01*
X161161905Y-50503390D02*
X161257143Y-50455771D01*
X161257143Y-50455771D02*
X161495238Y-50455771D01*
X161495238Y-50455771D02*
X161590476Y-50503390D01*
X161590476Y-50503390D02*
X161638095Y-50551009D01*
X161638095Y-50551009D02*
X161685714Y-50646247D01*
X161685714Y-50646247D02*
X161685714Y-50884342D01*
X161685714Y-50884342D02*
X161638095Y-50979580D01*
X161638095Y-50979580D02*
X161590476Y-51027200D01*
X161590476Y-51027200D02*
X161495238Y-51074819D01*
X161495238Y-51074819D02*
X161257143Y-51074819D01*
X161257143Y-51074819D02*
X161161905Y-51027200D01*
X161161905Y-51027200D02*
X161114286Y-50979580D01*
D11*
%TO.C,U2*%
X126538095Y-64457419D02*
X126538095Y-65266942D01*
X126538095Y-65266942D02*
X126585714Y-65362180D01*
X126585714Y-65362180D02*
X126633333Y-65409800D01*
X126633333Y-65409800D02*
X126728571Y-65457419D01*
X126728571Y-65457419D02*
X126919047Y-65457419D01*
X126919047Y-65457419D02*
X127014285Y-65409800D01*
X127014285Y-65409800D02*
X127061904Y-65362180D01*
X127061904Y-65362180D02*
X127109523Y-65266942D01*
X127109523Y-65266942D02*
X127109523Y-64457419D01*
X127538095Y-64552657D02*
X127585714Y-64505038D01*
X127585714Y-64505038D02*
X127680952Y-64457419D01*
X127680952Y-64457419D02*
X127919047Y-64457419D01*
X127919047Y-64457419D02*
X128014285Y-64505038D01*
X128014285Y-64505038D02*
X128061904Y-64552657D01*
X128061904Y-64552657D02*
X128109523Y-64647895D01*
X128109523Y-64647895D02*
X128109523Y-64743133D01*
X128109523Y-64743133D02*
X128061904Y-64885990D01*
X128061904Y-64885990D02*
X127490476Y-65457419D01*
X127490476Y-65457419D02*
X128109523Y-65457419D01*
D10*
%TO.C,R1*%
X125813333Y-43034819D02*
X125480000Y-42558628D01*
X125241905Y-43034819D02*
X125241905Y-42034819D01*
X125241905Y-42034819D02*
X125622857Y-42034819D01*
X125622857Y-42034819D02*
X125718095Y-42082438D01*
X125718095Y-42082438D02*
X125765714Y-42130057D01*
X125765714Y-42130057D02*
X125813333Y-42225295D01*
X125813333Y-42225295D02*
X125813333Y-42368152D01*
X125813333Y-42368152D02*
X125765714Y-42463390D01*
X125765714Y-42463390D02*
X125718095Y-42511009D01*
X125718095Y-42511009D02*
X125622857Y-42558628D01*
X125622857Y-42558628D02*
X125241905Y-42558628D01*
X126765714Y-43034819D02*
X126194286Y-43034819D01*
X126480000Y-43034819D02*
X126480000Y-42034819D01*
X126480000Y-42034819D02*
X126384762Y-42177676D01*
X126384762Y-42177676D02*
X126289524Y-42272914D01*
X126289524Y-42272914D02*
X126194286Y-42320533D01*
%TO.C,H5*%
X114238095Y-58954819D02*
X114238095Y-57954819D01*
X114238095Y-58431009D02*
X114809523Y-58431009D01*
X114809523Y-58954819D02*
X114809523Y-57954819D01*
X115761904Y-57954819D02*
X115285714Y-57954819D01*
X115285714Y-57954819D02*
X115238095Y-58431009D01*
X115238095Y-58431009D02*
X115285714Y-58383390D01*
X115285714Y-58383390D02*
X115380952Y-58335771D01*
X115380952Y-58335771D02*
X115619047Y-58335771D01*
X115619047Y-58335771D02*
X115714285Y-58383390D01*
X115714285Y-58383390D02*
X115761904Y-58431009D01*
X115761904Y-58431009D02*
X115809523Y-58526247D01*
X115809523Y-58526247D02*
X115809523Y-58764342D01*
X115809523Y-58764342D02*
X115761904Y-58859580D01*
X115761904Y-58859580D02*
X115714285Y-58907200D01*
X115714285Y-58907200D02*
X115619047Y-58954819D01*
X115619047Y-58954819D02*
X115380952Y-58954819D01*
X115380952Y-58954819D02*
X115285714Y-58907200D01*
X115285714Y-58907200D02*
X115238095Y-58859580D01*
%TO.C,H2*%
X155238095Y-40254819D02*
X155238095Y-39254819D01*
X155238095Y-39731009D02*
X155809523Y-39731009D01*
X155809523Y-40254819D02*
X155809523Y-39254819D01*
X156238095Y-39350057D02*
X156285714Y-39302438D01*
X156285714Y-39302438D02*
X156380952Y-39254819D01*
X156380952Y-39254819D02*
X156619047Y-39254819D01*
X156619047Y-39254819D02*
X156714285Y-39302438D01*
X156714285Y-39302438D02*
X156761904Y-39350057D01*
X156761904Y-39350057D02*
X156809523Y-39445295D01*
X156809523Y-39445295D02*
X156809523Y-39540533D01*
X156809523Y-39540533D02*
X156761904Y-39683390D01*
X156761904Y-39683390D02*
X156190476Y-40254819D01*
X156190476Y-40254819D02*
X156809523Y-40254819D01*
%TO.C,H4*%
X94238095Y-71254819D02*
X94238095Y-70254819D01*
X94238095Y-70731009D02*
X94809523Y-70731009D01*
X94809523Y-71254819D02*
X94809523Y-70254819D01*
X95714285Y-70588152D02*
X95714285Y-71254819D01*
X95476190Y-70207200D02*
X95238095Y-70921485D01*
X95238095Y-70921485D02*
X95857142Y-70921485D01*
%TO.C,Q1*%
X152050057Y-64595238D02*
X152002438Y-64690476D01*
X152002438Y-64690476D02*
X151907200Y-64785714D01*
X151907200Y-64785714D02*
X151764342Y-64928571D01*
X151764342Y-64928571D02*
X151716723Y-65023809D01*
X151716723Y-65023809D02*
X151716723Y-65119047D01*
X151954819Y-65071428D02*
X151907200Y-65166666D01*
X151907200Y-65166666D02*
X151811961Y-65261904D01*
X151811961Y-65261904D02*
X151621485Y-65309523D01*
X151621485Y-65309523D02*
X151288152Y-65309523D01*
X151288152Y-65309523D02*
X151097676Y-65261904D01*
X151097676Y-65261904D02*
X151002438Y-65166666D01*
X151002438Y-65166666D02*
X150954819Y-65071428D01*
X150954819Y-65071428D02*
X150954819Y-64880952D01*
X150954819Y-64880952D02*
X151002438Y-64785714D01*
X151002438Y-64785714D02*
X151097676Y-64690476D01*
X151097676Y-64690476D02*
X151288152Y-64642857D01*
X151288152Y-64642857D02*
X151621485Y-64642857D01*
X151621485Y-64642857D02*
X151811961Y-64690476D01*
X151811961Y-64690476D02*
X151907200Y-64785714D01*
X151907200Y-64785714D02*
X151954819Y-64880952D01*
X151954819Y-64880952D02*
X151954819Y-65071428D01*
X151954819Y-63690476D02*
X151954819Y-64261904D01*
X151954819Y-63976190D02*
X150954819Y-63976190D01*
X150954819Y-63976190D02*
X151097676Y-64071428D01*
X151097676Y-64071428D02*
X151192914Y-64166666D01*
X151192914Y-64166666D02*
X151240533Y-64261904D01*
%TO.C,J1*%
X156454819Y-54833333D02*
X157169104Y-54833333D01*
X157169104Y-54833333D02*
X157311961Y-54880952D01*
X157311961Y-54880952D02*
X157407200Y-54976190D01*
X157407200Y-54976190D02*
X157454819Y-55119047D01*
X157454819Y-55119047D02*
X157454819Y-55214285D01*
X157454819Y-53833333D02*
X157454819Y-54404761D01*
X157454819Y-54119047D02*
X156454819Y-54119047D01*
X156454819Y-54119047D02*
X156597676Y-54214285D01*
X156597676Y-54214285D02*
X156692914Y-54309523D01*
X156692914Y-54309523D02*
X156740533Y-54404761D01*
%TO.C,H7*%
X110638095Y-76754819D02*
X110638095Y-75754819D01*
X110638095Y-76231009D02*
X111209523Y-76231009D01*
X111209523Y-76754819D02*
X111209523Y-75754819D01*
X111590476Y-75754819D02*
X112257142Y-75754819D01*
X112257142Y-75754819D02*
X111828571Y-76754819D01*
D11*
%TO.C,U3*%
X160238095Y-64457419D02*
X160238095Y-65266942D01*
X160238095Y-65266942D02*
X160285714Y-65362180D01*
X160285714Y-65362180D02*
X160333333Y-65409800D01*
X160333333Y-65409800D02*
X160428571Y-65457419D01*
X160428571Y-65457419D02*
X160619047Y-65457419D01*
X160619047Y-65457419D02*
X160714285Y-65409800D01*
X160714285Y-65409800D02*
X160761904Y-65362180D01*
X160761904Y-65362180D02*
X160809523Y-65266942D01*
X160809523Y-65266942D02*
X160809523Y-64457419D01*
X161190476Y-64457419D02*
X161809523Y-64457419D01*
X161809523Y-64457419D02*
X161476190Y-64838371D01*
X161476190Y-64838371D02*
X161619047Y-64838371D01*
X161619047Y-64838371D02*
X161714285Y-64885990D01*
X161714285Y-64885990D02*
X161761904Y-64933609D01*
X161761904Y-64933609D02*
X161809523Y-65028847D01*
X161809523Y-65028847D02*
X161809523Y-65266942D01*
X161809523Y-65266942D02*
X161761904Y-65362180D01*
X161761904Y-65362180D02*
X161714285Y-65409800D01*
X161714285Y-65409800D02*
X161619047Y-65457419D01*
X161619047Y-65457419D02*
X161333333Y-65457419D01*
X161333333Y-65457419D02*
X161238095Y-65409800D01*
X161238095Y-65409800D02*
X161190476Y-65362180D01*
D10*
%TO.C,H3*%
X155238095Y-78954819D02*
X155238095Y-77954819D01*
X155238095Y-78431009D02*
X155809523Y-78431009D01*
X155809523Y-78954819D02*
X155809523Y-77954819D01*
X156190476Y-77954819D02*
X156809523Y-77954819D01*
X156809523Y-77954819D02*
X156476190Y-78335771D01*
X156476190Y-78335771D02*
X156619047Y-78335771D01*
X156619047Y-78335771D02*
X156714285Y-78383390D01*
X156714285Y-78383390D02*
X156761904Y-78431009D01*
X156761904Y-78431009D02*
X156809523Y-78526247D01*
X156809523Y-78526247D02*
X156809523Y-78764342D01*
X156809523Y-78764342D02*
X156761904Y-78859580D01*
X156761904Y-78859580D02*
X156714285Y-78907200D01*
X156714285Y-78907200D02*
X156619047Y-78954819D01*
X156619047Y-78954819D02*
X156333333Y-78954819D01*
X156333333Y-78954819D02*
X156238095Y-78907200D01*
X156238095Y-78907200D02*
X156190476Y-78859580D01*
D11*
%TO.C,U1*%
X100457419Y-45761904D02*
X101266942Y-45761904D01*
X101266942Y-45761904D02*
X101362180Y-45714285D01*
X101362180Y-45714285D02*
X101409800Y-45666666D01*
X101409800Y-45666666D02*
X101457419Y-45571428D01*
X101457419Y-45571428D02*
X101457419Y-45380952D01*
X101457419Y-45380952D02*
X101409800Y-45285714D01*
X101409800Y-45285714D02*
X101362180Y-45238095D01*
X101362180Y-45238095D02*
X101266942Y-45190476D01*
X101266942Y-45190476D02*
X100457419Y-45190476D01*
X101457419Y-44190476D02*
X101457419Y-44761904D01*
X101457419Y-44476190D02*
X100457419Y-44476190D01*
X100457419Y-44476190D02*
X100600276Y-44571428D01*
X100600276Y-44571428D02*
X100695514Y-44666666D01*
X100695514Y-44666666D02*
X100743133Y-44761904D01*
D10*
%TO.C,C2*%
X111459580Y-69066666D02*
X111507200Y-69114285D01*
X111507200Y-69114285D02*
X111554819Y-69257142D01*
X111554819Y-69257142D02*
X111554819Y-69352380D01*
X111554819Y-69352380D02*
X111507200Y-69495237D01*
X111507200Y-69495237D02*
X111411961Y-69590475D01*
X111411961Y-69590475D02*
X111316723Y-69638094D01*
X111316723Y-69638094D02*
X111126247Y-69685713D01*
X111126247Y-69685713D02*
X110983390Y-69685713D01*
X110983390Y-69685713D02*
X110792914Y-69638094D01*
X110792914Y-69638094D02*
X110697676Y-69590475D01*
X110697676Y-69590475D02*
X110602438Y-69495237D01*
X110602438Y-69495237D02*
X110554819Y-69352380D01*
X110554819Y-69352380D02*
X110554819Y-69257142D01*
X110554819Y-69257142D02*
X110602438Y-69114285D01*
X110602438Y-69114285D02*
X110650057Y-69066666D01*
X110650057Y-68685713D02*
X110602438Y-68638094D01*
X110602438Y-68638094D02*
X110554819Y-68542856D01*
X110554819Y-68542856D02*
X110554819Y-68304761D01*
X110554819Y-68304761D02*
X110602438Y-68209523D01*
X110602438Y-68209523D02*
X110650057Y-68161904D01*
X110650057Y-68161904D02*
X110745295Y-68114285D01*
X110745295Y-68114285D02*
X110840533Y-68114285D01*
X110840533Y-68114285D02*
X110983390Y-68161904D01*
X110983390Y-68161904D02*
X111554819Y-68733332D01*
X111554819Y-68733332D02*
X111554819Y-68114285D01*
%TO.C,H8*%
X141638095Y-76754819D02*
X141638095Y-75754819D01*
X141638095Y-76231009D02*
X142209523Y-76231009D01*
X142209523Y-76754819D02*
X142209523Y-75754819D01*
X142828571Y-76183390D02*
X142733333Y-76135771D01*
X142733333Y-76135771D02*
X142685714Y-76088152D01*
X142685714Y-76088152D02*
X142638095Y-75992914D01*
X142638095Y-75992914D02*
X142638095Y-75945295D01*
X142638095Y-75945295D02*
X142685714Y-75850057D01*
X142685714Y-75850057D02*
X142733333Y-75802438D01*
X142733333Y-75802438D02*
X142828571Y-75754819D01*
X142828571Y-75754819D02*
X143019047Y-75754819D01*
X143019047Y-75754819D02*
X143114285Y-75802438D01*
X143114285Y-75802438D02*
X143161904Y-75850057D01*
X143161904Y-75850057D02*
X143209523Y-75945295D01*
X143209523Y-75945295D02*
X143209523Y-75992914D01*
X143209523Y-75992914D02*
X143161904Y-76088152D01*
X143161904Y-76088152D02*
X143114285Y-76135771D01*
X143114285Y-76135771D02*
X143019047Y-76183390D01*
X143019047Y-76183390D02*
X142828571Y-76183390D01*
X142828571Y-76183390D02*
X142733333Y-76231009D01*
X142733333Y-76231009D02*
X142685714Y-76278628D01*
X142685714Y-76278628D02*
X142638095Y-76373866D01*
X142638095Y-76373866D02*
X142638095Y-76564342D01*
X142638095Y-76564342D02*
X142685714Y-76659580D01*
X142685714Y-76659580D02*
X142733333Y-76707200D01*
X142733333Y-76707200D02*
X142828571Y-76754819D01*
X142828571Y-76754819D02*
X143019047Y-76754819D01*
X143019047Y-76754819D02*
X143114285Y-76707200D01*
X143114285Y-76707200D02*
X143161904Y-76659580D01*
X143161904Y-76659580D02*
X143209523Y-76564342D01*
X143209523Y-76564342D02*
X143209523Y-76373866D01*
X143209523Y-76373866D02*
X143161904Y-76278628D01*
X143161904Y-76278628D02*
X143114285Y-76231009D01*
X143114285Y-76231009D02*
X143019047Y-76183390D01*
%TO.C,R2*%
X158333333Y-71774819D02*
X158000000Y-71298628D01*
X157761905Y-71774819D02*
X157761905Y-70774819D01*
X157761905Y-70774819D02*
X158142857Y-70774819D01*
X158142857Y-70774819D02*
X158238095Y-70822438D01*
X158238095Y-70822438D02*
X158285714Y-70870057D01*
X158285714Y-70870057D02*
X158333333Y-70965295D01*
X158333333Y-70965295D02*
X158333333Y-71108152D01*
X158333333Y-71108152D02*
X158285714Y-71203390D01*
X158285714Y-71203390D02*
X158238095Y-71251009D01*
X158238095Y-71251009D02*
X158142857Y-71298628D01*
X158142857Y-71298628D02*
X157761905Y-71298628D01*
X158714286Y-70870057D02*
X158761905Y-70822438D01*
X158761905Y-70822438D02*
X158857143Y-70774819D01*
X158857143Y-70774819D02*
X159095238Y-70774819D01*
X159095238Y-70774819D02*
X159190476Y-70822438D01*
X159190476Y-70822438D02*
X159238095Y-70870057D01*
X159238095Y-70870057D02*
X159285714Y-70965295D01*
X159285714Y-70965295D02*
X159285714Y-71060533D01*
X159285714Y-71060533D02*
X159238095Y-71203390D01*
X159238095Y-71203390D02*
X158666667Y-71774819D01*
X158666667Y-71774819D02*
X159285714Y-71774819D01*
%TO.C,H6*%
X138138095Y-58954819D02*
X138138095Y-57954819D01*
X138138095Y-58431009D02*
X138709523Y-58431009D01*
X138709523Y-58954819D02*
X138709523Y-57954819D01*
X139614285Y-57954819D02*
X139423809Y-57954819D01*
X139423809Y-57954819D02*
X139328571Y-58002438D01*
X139328571Y-58002438D02*
X139280952Y-58050057D01*
X139280952Y-58050057D02*
X139185714Y-58192914D01*
X139185714Y-58192914D02*
X139138095Y-58383390D01*
X139138095Y-58383390D02*
X139138095Y-58764342D01*
X139138095Y-58764342D02*
X139185714Y-58859580D01*
X139185714Y-58859580D02*
X139233333Y-58907200D01*
X139233333Y-58907200D02*
X139328571Y-58954819D01*
X139328571Y-58954819D02*
X139519047Y-58954819D01*
X139519047Y-58954819D02*
X139614285Y-58907200D01*
X139614285Y-58907200D02*
X139661904Y-58859580D01*
X139661904Y-58859580D02*
X139709523Y-58764342D01*
X139709523Y-58764342D02*
X139709523Y-58526247D01*
X139709523Y-58526247D02*
X139661904Y-58431009D01*
X139661904Y-58431009D02*
X139614285Y-58383390D01*
X139614285Y-58383390D02*
X139519047Y-58335771D01*
X139519047Y-58335771D02*
X139328571Y-58335771D01*
X139328571Y-58335771D02*
X139233333Y-58383390D01*
X139233333Y-58383390D02*
X139185714Y-58431009D01*
X139185714Y-58431009D02*
X139138095Y-58526247D01*
D12*
%TO.C,C5*%
X160638748Y-51565000D02*
X161161252Y-51565000D01*
X160638748Y-53035000D02*
X161161252Y-53035000D01*
D11*
%TO.C,U2*%
X108900000Y-56000000D02*
X144900000Y-56000000D01*
X144900000Y-56000000D02*
X144900000Y-82000000D01*
X144900000Y-82000000D02*
X108900000Y-82000000D01*
X108900000Y-82000000D02*
X108900000Y-56000000D01*
X143900000Y-79500000D02*
G75*
G03*
X143900000Y-79500000I-1500000J0D01*
G01*
X143900000Y-58500000D02*
G75*
G03*
X143900000Y-58500000I-1500000J0D01*
G01*
X112900000Y-79500000D02*
G75*
G03*
X112900000Y-79500000I-1500000J0D01*
G01*
X112900000Y-58500000D02*
G75*
G03*
X112900000Y-58500000I-1500000J0D01*
G01*
D12*
%TO.C,R1*%
X119800000Y-45500000D02*
X120910000Y-45500000D01*
X120910000Y-43580000D02*
X120910000Y-47420000D01*
X120910000Y-47420000D02*
X131050000Y-47420000D01*
X131050000Y-43580000D02*
X120910000Y-43580000D01*
X131050000Y-47420000D02*
X131050000Y-43580000D01*
X132160000Y-45500000D02*
X131050000Y-45500000D01*
%TO.C,C4*%
X104888748Y-39665000D02*
X105411252Y-39665000D01*
X104888748Y-41135000D02*
X105411252Y-41135000D01*
%TO.C,C1*%
X112365000Y-69161252D02*
X112365000Y-68638748D01*
X113835000Y-69161252D02*
X113835000Y-68638748D01*
%TO.C,C3*%
X104888748Y-37565000D02*
X105411252Y-37565000D01*
X104888748Y-39035000D02*
X105411252Y-39035000D01*
%TO.C,Q1*%
X145680000Y-61630000D02*
X145680000Y-65230000D01*
X150130000Y-63430000D02*
G75*
G03*
X145691522Y-61591522I-2600000J0D01*
G01*
X145691522Y-65268478D02*
G75*
G03*
X150130000Y-63430000I1838478J1838478D01*
G01*
%TO.C,J1*%
X163650000Y-53810000D02*
X163650000Y-64190000D01*
X158350000Y-53810000D02*
X163650000Y-53810000D01*
X163650000Y-64190000D02*
X158350000Y-64190000D01*
X158350000Y-64190000D02*
X158350000Y-53810000D01*
D11*
%TO.C,U3*%
X157600000Y-55820000D02*
X152520000Y-55820000D01*
X152520000Y-55820000D02*
X152520000Y-65980000D01*
X157600000Y-65980000D02*
X157600000Y-55820000D01*
X152520000Y-65980000D02*
X157600000Y-65980000D01*
%TO.C,U1*%
X152800000Y-34610000D02*
X98800000Y-34610000D01*
X98800000Y-34610000D02*
X98800000Y-55610000D01*
X98800000Y-55610000D02*
X152800000Y-55610000D01*
X152800000Y-55610000D02*
X152800000Y-34610000D01*
D12*
%TO.C,C2*%
X114465000Y-69161252D02*
X114465000Y-68638748D01*
X115935000Y-69161252D02*
X115935000Y-68638748D01*
%TO.C,R2*%
X160760000Y-68400000D02*
X159650000Y-68400000D01*
X159650000Y-70320000D02*
X159650000Y-66480000D01*
X159650000Y-66480000D02*
X149510000Y-66480000D01*
X149510000Y-70320000D02*
X159650000Y-70320000D01*
X149510000Y-66480000D02*
X149510000Y-70320000D01*
X148400000Y-68400000D02*
X149510000Y-68400000D01*
%TD*%
M02*
