%TF.GenerationSoftware,KiCad,Pcbnew,7.0.5*%
%TF.CreationDate,2024-02-27T08:06:29+01:00*%
%TF.ProjectId,Zeitmessung,5a656974-6d65-4737-9375-6e672e6b6963,rev?*%
%TF.SameCoordinates,Original*%
%TF.FileFunction,Soldermask,Bot*%
%TF.FilePolarity,Negative*%
%FSLAX46Y46*%
G04 Gerber Fmt 4.6, Leading zero omitted, Abs format (unit mm)*
G04 Created by KiCad (PCBNEW 7.0.5) date 2024-02-27 08:06:29*
%MOMM*%
%LPD*%
G01*
G04 APERTURE LIST*
G04 Aperture macros list*
%AMRoundRect*
0 Rectangle with rounded corners*
0 $1 Rounding radius*
0 $2 $3 $4 $5 $6 $7 $8 $9 X,Y pos of 4 corners*
0 Add a 4 corners polygon primitive as box body*
4,1,4,$2,$3,$4,$5,$6,$7,$8,$9,$2,$3,0*
0 Add four circle primitives for the rounded corners*
1,1,$1+$1,$2,$3*
1,1,$1+$1,$4,$5*
1,1,$1+$1,$6,$7*
1,1,$1+$1,$8,$9*
0 Add four rect primitives between the rounded corners*
20,1,$1+$1,$2,$3,$4,$5,0*
20,1,$1+$1,$4,$5,$6,$7,0*
20,1,$1+$1,$6,$7,$8,$9,0*
20,1,$1+$1,$8,$9,$2,$3,0*%
G04 Aperture macros list end*
%ADD10C,2.100000*%
%ADD11C,1.524000*%
%ADD12C,2.400000*%
%ADD13O,2.400000X2.400000*%
%ADD14R,1.300000X1.300000*%
%ADD15C,1.300000*%
%ADD16RoundRect,0.250000X-0.405000X0.405000X-0.405000X-0.405000X0.405000X-0.405000X0.405000X0.405000X0*%
%ADD17C,1.310000*%
G04 APERTURE END LIST*
D10*
%TO.C,H1*%
X95000000Y-43000000D03*
%TD*%
D11*
%TO.C,U2*%
X110890000Y-72760000D03*
X110890000Y-70220000D03*
X110890000Y-67680000D03*
X110890000Y-65140000D03*
%TD*%
D12*
%TO.C,R1*%
X118360000Y-45500000D03*
D13*
X133600000Y-45500000D03*
%TD*%
D10*
%TO.C,H5*%
X111400000Y-58500000D03*
%TD*%
%TO.C,H2*%
X156000000Y-43000000D03*
%TD*%
%TO.C,H4*%
X95000000Y-74000000D03*
%TD*%
D14*
%TO.C,Q1*%
X147530000Y-62160000D03*
D15*
X148800000Y-63430000D03*
X147530000Y-64700000D03*
%TD*%
D16*
%TO.C,J1*%
X162270000Y-55190000D03*
D17*
X159730000Y-55190000D03*
X162270000Y-57730000D03*
X159730000Y-57730000D03*
X162270000Y-60270000D03*
X159730000Y-60270000D03*
X162270000Y-62810000D03*
X159730000Y-62810000D03*
%TD*%
D10*
%TO.C,H7*%
X111400000Y-79500000D03*
%TD*%
D11*
%TO.C,U3*%
X155060000Y-58360000D03*
X155060000Y-60900000D03*
X155060000Y-63440000D03*
%TD*%
D10*
%TO.C,H3*%
X156000000Y-74000000D03*
%TD*%
D11*
%TO.C,U1*%
X101380000Y-54000000D03*
X103920000Y-54000000D03*
X106460000Y-54000000D03*
X109000000Y-54000000D03*
X111540000Y-54000000D03*
X114080000Y-54000000D03*
X116620000Y-54000000D03*
X119160000Y-54000000D03*
X121700000Y-54000000D03*
X124240000Y-54000000D03*
X126780000Y-54000000D03*
X129320000Y-54000000D03*
X131860000Y-54000000D03*
X134400000Y-54000000D03*
X136940000Y-54000000D03*
X139480000Y-54000000D03*
X142020000Y-54000000D03*
X144560000Y-54000000D03*
X147100000Y-54000000D03*
X149640000Y-54000000D03*
X149640000Y-36220000D03*
X147100000Y-36220000D03*
X144560000Y-36220000D03*
X142020000Y-36220000D03*
X139480000Y-36220000D03*
X136940000Y-36220000D03*
X134400000Y-36220000D03*
X131860000Y-36220000D03*
X129320000Y-36220000D03*
X126780000Y-36220000D03*
X124240000Y-36220000D03*
X121700000Y-36220000D03*
X119160000Y-36220000D03*
X116620000Y-36220000D03*
X114080000Y-36220000D03*
X111540000Y-36220000D03*
X109000000Y-36220000D03*
X106460000Y-36220000D03*
X103920000Y-36220000D03*
X101380000Y-36220000D03*
%TD*%
D10*
%TO.C,H8*%
X142400000Y-79500000D03*
%TD*%
D12*
%TO.C,R2*%
X162200000Y-68400000D03*
D13*
X146960000Y-68400000D03*
%TD*%
D10*
%TO.C,H6*%
X142400000Y-58500000D03*
%TD*%
M02*
